<?xml version="1.0" encoding="UTF-8" standalone="no"?>
<!-- Created with Inkscape (http://www.inkscape.org/) -->

<svg
   xmlns:dc="http://purl.org/dc/elements/1.1/"
   xmlns:cc="http://creativecommons.org/ns#"
   xmlns:rdf="http://www.w3.org/1999/02/22-rdf-syntax-ns#"
   xmlns:svg="http://www.w3.org/2000/svg"
   xmlns="http://www.w3.org/2000/svg"
   xmlns:sodipodi="http://sodipodi.sourceforge.net/DTD/sodipodi-0.dtd"
   xmlns:inkscape="http://www.inkscape.org/namespaces/inkscape"
   width="389.09692"
   height="236.99377"
   id="svg2"
   version="1.1"
   inkscape:version="0.48.4 r9939"
   sodipodi:docname="New document 1">
  <defs
     id="defs4"
     style="stroke-linecap:butt;stroke-linejoin:round">
    <marker
       inkscape:stockid="Arrow1Mend"
       orient="auto"
       refY="0"
       refX="0"
       id="Arrow1Mend"
       style="stroke-linecap:butt;stroke-linejoin:round;overflow:visible">
      <path
         id="path4473"
         d="M 0,0 5,-5 -12.5,0 5,5 0,0 z"
         style="fill-rule:evenodd;stroke:#000000;stroke-width:1pt;stroke-linecap:butt;stroke-linejoin:round"
         transform="matrix(-0.4,0,0,-0.4,-4,0)"
         inkscape:connector-curvature="0" />
    </marker>
    <clipPath
       id="p828c69dd68">
      <rect
         id="rect3177"
         y="28.799999"
         x="109.7916"
         width="223.2168"
         height="223.2"
         style="stroke-linecap:butt;stroke-linejoin:round" />
    </clipPath>
    <style
       id="style2989"
       type="text/css">
*{stroke-linecap:butt;stroke-linejoin:round;}
  </style>
    <defs
       id="defs3132">
      <path
         style="stroke-linecap:butt;stroke-linejoin:round"
         inkscape:connector-curvature="0"
         d=""
         id="BitstreamVeraSans-Roman-20" />
      <path
         style="stroke-linecap:butt;stroke-linejoin:round"
         inkscape:connector-curvature="0"
         d="m 37.1094,75.9844 0,-7.4844 -8.5938,0 q -4.8281,0 -6.7187,-1.9531 -1.875,-1.9531 -1.875,-7.0313 l 0,-4.8281 14.7969,0 0,-6.9844 -14.7969,0 0,-47.7031 -9.0313,0 0,47.7031 -8.59372,0 0,6.9844 8.59372,0 0,3.8125 q 0,9.125 4.25,13.2969 4.25,4.1875 13.4688,4.1875 z"
         id="BitstreamVeraSans-Roman-66" />
      <path
         style="stroke-linecap:butt;stroke-linejoin:round"
         inkscape:connector-curvature="0"
         d="m 30.6094,48.3906 q -7.2188,0 -11.4219,-5.6406 -4.2031,-5.6406 -4.2031,-15.4531 0,-9.8125 4.1718,-15.4531 4.1876,-5.64068 11.4532,-5.64068 7.1875,0 11.375,5.65628 4.2031,5.6718 4.2031,15.4375 0,9.7187 -4.2031,15.4062 -4.1875,5.6875 -11.375,5.6875 m 0,7.6094 q 11.7187,0 18.4062,-7.625 6.7032,-7.6094 6.7032,-21.0781 0,-13.4219 -6.7032,-21.07815 -6.6875,-7.64063 -18.4062,-7.64063 -11.7656,0 -18.4375,7.64063 -6.65628,7.65625 -6.65628,21.07815 0,13.4687 6.65628,21.0781 Q 18.8438,56 30.6094,56"
         id="BitstreamVeraSans-Roman-6f" />
      <path
         style="stroke-linecap:butt;stroke-linejoin:round"
         inkscape:connector-curvature="0"
         d="m 9.42188,75.9844 8.98432,0 0,-75.9844 -8.98432,0 z"
         id="BitstreamVeraSans-Roman-6c" />
      <path
         style="stroke-linecap:butt;stroke-linejoin:round"
         inkscape:connector-curvature="0"
         d="m 18.3125,70.2188 0,-15.5313 18.5,0 0,-6.9844 -18.5,0 0,-29.6875 q 0,-6.6875 1.8281,-8.59372 1.8282,-1.90626 7.4532,-1.90626 l 9.2187,0 0,-7.51562 -9.2187,0 Q 17.1875,0 13.2344,3.875 9.28125,7.76562 9.28125,18.0156 l 0,29.6875 -6.59375,0 0,6.9844 6.59375,0 0,15.5313 z"
         id="BitstreamVeraSans-Roman-74" />
      <path
         style="stroke-linecap:butt;stroke-linejoin:round"
         inkscape:connector-curvature="0"
         d="m 8.5,21.5781 0,33.1094 8.9844,0 0,-32.7656 q 0,-7.7657 3.0156,-11.6563 3.0312,-3.87498 9.0938,-3.87498 7.2656,0 11.4843,4.64058 4.2344,4.6407 4.2344,12.6563 l 0,31 8.9844,0 0,-54.6875 -8.9844,0 0,8.40625 Q 42.0469,3.42188 37.7188,1 33.4062,-1.42188 27.6875,-1.42188 18.2656,-1.42188 13.375,4.4375 8.5,10.2969 8.5,21.5781"
         id="BitstreamVeraSans-Roman-75" />
    </defs>
    <defs
       id="defs3097">
      <path
         style="stroke-linecap:butt;stroke-linejoin:round"
         inkscape:connector-curvature="0"
         d="m 45.4062,46.3906 0,29.5938 8.9844,0 0,-75.9844 -8.9844,0 0,8.20312 Q 42.5781,3.32812 38.25,0.953125 33.9375,-1.42188 27.875,-1.42188 q -9.9062,0 -16.1406,7.90626 -6.21878,7.92182 -6.21878,20.81252 0,12.8906 6.21878,20.7969 Q 17.9688,56 27.875,56 q 6.0625,0 10.375,-2.375 4.3281,-2.3594 7.1562,-7.2344 M 14.7969,27.2969 q 0,-9.9063 4.0781,-15.5469 4.0781,-5.64062 11.2031,-5.64062 7.125,0 11.2188,5.64062 4.1093,5.6406 4.1093,15.5469 0,9.9062 -4.1093,15.5469 -4.0938,5.6406 -11.2188,5.6406 -7.125,0 -11.2031,-5.6406 -4.0781,-5.6407 -4.0781,-15.5469"
         id="BitstreamVeraSans-Roman-64" />
      <path
         style="stroke-linecap:butt;stroke-linejoin:round"
         inkscape:connector-curvature="0"
         d="m 41.1094,46.2969 q -1.5156,0.875 -3.2969,1.2812 Q 36.0312,48 33.8906,48 26.2656,48 22.1875,43.0469 18.1094,38.0938 18.1094,28.8125 l 0,-28.8125 -9.03128,0 0,54.6875 9.03128,0 0,-8.5 q 2.8437,4.9844 7.375,7.3906 Q 30.0312,56 36.5312,56 q 0.9219,0 2.0469,-0.125 1.125,-0.1094 2.4844,-0.3594 z"
         id="BitstreamVeraSans-Roman-72" />
      <path
         style="stroke-linecap:butt;stroke-linejoin:round"
         inkscape:connector-curvature="0"
         d="m 18.1094,8.20312 0,-29.00002 -9.03128,0 0,75.4844 9.03128,0 0,-8.2969 q 2.8437,4.875 7.1562,7.2344 Q 29.5938,56 35.5938,56 q 9.9687,0 16.1874,-7.9062 6.2344,-7.9063 6.2344,-20.7969 0,-12.8907 -6.2344,-20.81252 -6.2187,-7.90626 -16.1874,-7.90626 -6,0 -10.3282,2.375005 Q 20.9531,3.32812 18.1094,8.20312 M 48.6875,27.2969 q 0,9.9062 -4.0781,15.5469 -4.0782,5.6406 -11.2032,5.6406 -7.1406,0 -11.2187,-5.6406 -4.0781,-5.6407 -4.0781,-15.5469 0,-9.9063 4.0781,-15.5469 4.0781,-5.64062 11.2187,-5.64062 7.125,0 11.2032,5.64062 4.0781,5.6406 4.0781,15.5469"
         id="BitstreamVeraSans-Roman-70" />
      <path
         style="stroke-linecap:butt;stroke-linejoin:round"
         inkscape:connector-curvature="0"
         d="M 54.8906,54.6875 35.1094,28.0781 55.9062,0 45.3125,0 29.3906,21.4844 13.4844,0 2.875,0 24.125,28.6094 4.6875,54.6875 l 10.5937,0 14.5,-19.4844 14.5,19.4844 z"
         id="BitstreamVeraSans-Roman-78" />
    </defs>
    <defs
       id="defs3058">
      <path
         style="stroke-linecap:butt;stroke-linejoin:round"
         inkscape:connector-curvature="0"
         d="m 54.8906,33.0156 0,-33.0156 -8.9844,0 0,32.7188 q 0,7.7656 -3.0312,11.6093 -3.0312,3.8594 -9.0781,3.8594 -7.2813,0 -11.4844,-4.6406 -4.2031,-4.625 -4.2031,-12.6407 l 0,-30.9062 -9.03128,0 0,54.6875 9.03128,0 0,-8.5 q 3.2344,4.9375 7.5937,7.375 Q 30.0781,56 35.7969,56 q 9.4219,0 14.25,-5.8281 4.8437,-5.8281 4.8437,-17.1563"
         id="BitstreamVeraSans-Roman-6e" />
      <path
         style="stroke-linecap:butt;stroke-linejoin:round"
         inkscape:connector-curvature="0"
         d="M 52,44.1875 Q 55.375,50.25 60.0625,53.125 64.75,56 71.0938,56 q 8.5468,0 13.1874,-5.9844 4.6407,-5.9687 4.6407,-17 l 0,-33.0156 -9.0313,0 0,32.7188 q 0,7.8593 -2.7968,11.6562 -2.7813,3.8125 -8.4844,3.8125 -6.9844,0 -11.0469,-4.6406 -4.0469,-4.625 -4.0469,-12.6407 l 0,-30.9062 -9.0312,0 0,32.7188 q 0,7.9062 -2.7813,11.6874 -2.7812,3.7813 -8.5937,3.7813 -6.8906,0 -10.9532,-4.6563 -4.0468,-4.6562 -4.0468,-12.625 l 0,-30.9062 -9.03128,0 0,54.6875 9.03128,0 0,-8.5 q 3.0781,5.0313 7.375,7.4219 Q 29.7812,56 35.6875,56 41.6562,56 45.8281,52.9688 50,49.9531 52,44.1875"
         id="BitstreamVeraSans-Roman-6d" />
      <path
         style="stroke-linecap:butt;stroke-linejoin:round"
         inkscape:connector-curvature="0"
         d="m 5.51562,54.6875 42.67188,0 0,-8.2031 -33.7813,-39.31252 33.7813,0 0,-7.17188 -43.89062,0 0,8.20312 33.79692,39.31248 -32.57818,0 z"
         id="BitstreamVeraSans-Roman-7a" />
      <path
         style="stroke-linecap:butt;stroke-linejoin:round"
         inkscape:connector-curvature="0"
         d="M 32.1719,-5.07812 Q 28.375,-14.8438 24.75,-17.8125 q -3.6094,-2.9844 -9.6562,-2.9844 l -7.18755,0 0,7.5157 5.28125,0 q 3.7031,0 5.75,1.7656 2.0625,1.74998 4.5469,8.29685 L 25.0938,0.875 2.98438,54.6875 l 9.51562,0 17.0938,-42.7656 17.0937,42.7656 9.5156,0 z"
         id="BitstreamVeraSans-Roman-79" />
      <path
         style="stroke-linecap:butt;stroke-linejoin:round"
         inkscape:connector-curvature="0"
         d="m 56.2031,29.5938 0,-4.3907 -41.3125,0 q 0.5938,-9.2812 5.5938,-14.1406 5,-4.85938 13.9375,-4.85938 5.1719,0 10.0312,1.26563 4.8594,1.26563 9.6563,3.81245 l 0,-8.49995 q -4.8438,-2.046875 -9.9219,-3.125 -5.0781,-1.07813 -10.2969,-1.07813 -13.0937,0 -20.7344,7.60938 -7.64058,7.625 -7.64058,20.625 0,13.4219 7.24998,21.2969 Q 20.0156,56 32.3281,56 q 11.0313,0 17.4531,-7.1094 6.4219,-7.0937 6.4219,-19.2968 m -8.9843,2.6406 q -0.0938,7.3594 -4.125,11.75 -4.0313,4.4062 -10.6719,4.4062 -7.5157,0 -12.0313,-4.25 -4.5156,-4.25 -5.2031,-11.9687 z"
         id="BitstreamVeraSans-Roman-65" />
      <path
         style="stroke-linecap:butt;stroke-linejoin:round"
         inkscape:connector-curvature="0"
         d="m 44.2812,53.0781 0,-8.5 q -3.7968,1.9531 -7.9062,2.9219 -4.0938,0.9844 -8.5,0.9844 -6.6875,0 -10.0312,-2.0469 Q 14.5,44.3906 14.5,40.2812 q 0,-3.125 2.3906,-4.9062 2.3906,-1.7812 9.625,-3.3906 l 3.0782,-0.6875 q 9.5624,-2.0469 13.5937,-5.7813 4.0313,-3.7344 4.0313,-10.4218 0,-7.62505 -6.0313,-12.07818 -6.0313,-4.4375 -16.5781,-4.4375 -4.3906,0 -9.1563,0.85938 Q 10.6875,0.296875 5.42188,2 l 0,9.2812 q 4.98432,-2.5937 9.81252,-3.89058 4.8281,-1.28124 9.5781,-1.28124 6.3437,0 9.75,2.17187 3.4219,2.17185 3.4219,6.12495 0,3.6563 -2.4688,5.6094 -2.4531,1.9532 -10.8125,3.7656 l -3.125,0.7344 q -8.3437,1.75 -12.06248,5.3906 -3.70312,3.6407 -3.70312,9.9844 0,7.7188 5.4687,11.9063 Q 16.75,56 26.8125,56 q 4.9687,0 9.3594,-0.7344 4.4062,-0.7187 8.1093,-2.1875"
         id="BitstreamVeraSans-Roman-73" />
    </defs>
    <defs
       id="defs3082">
      <path
         style="stroke-linecap:butt;stroke-linejoin:round"
         inkscape:connector-curvature="0"
         d="M 40.5781,39.3125 Q 47.6562,37.7969 51.625,33 q 3.9844,-4.7812 3.9844,-11.8125 0,-10.7813 -7.4219,-16.70312 -7.4219,-5.90626 -21.0937,-5.90626 -4.5782,0 -9.4376,0.906255 Q 12.7969,0.390625 7.625,2.20312 l 0,9.51568 q 4.0938,-2.39068 8.9688,-3.60942 4.8906,-1.21876 10.2187,-1.21876 9.2656,0 14.125,3.65628 4.8594,3.6562 4.8594,10.6406 0,6.4531 -4.5157,10.0781 -4.5156,3.6406 -12.5624,3.6406 l -8.5,0 0,8.1094 8.8906,0 q 7.2656,0 11.125,2.9063 3.8594,2.9062 3.8594,8.375 0,5.6093 -3.9844,8.6093 -3.9688,3.0157 -11.3906,3.0157 -4.0626,0 -8.7032,-0.8907 -4.6406,-0.875 -10.2031,-2.7187 l 0,8.7813 q 5.625,1.5624 10.5313,2.3437 4.9062,0.7813 9.25,0.7813 11.2343,0 17.7656,-5.1094 6.5468,-5.0938 6.5468,-13.7813 0,-6.0625 -3.4687,-10.2343 -3.4687,-4.1719 -9.8594,-5.7813"
         id="BitstreamVeraSans-Roman-33" />
      <path
         style="stroke-linecap:butt;stroke-linejoin:round"
         inkscape:connector-curvature="0"
         d="m 33.0156,40.375 q -6.6406,0 -10.5312,-4.5469 -3.875,-4.5312 -3.875,-12.4375 0,-7.8594 3.875,-12.4375 3.8906,-4.56248 10.5312,-4.56248 6.6406,0 10.5156,4.56248 3.875,4.5781 3.875,12.4375 0,7.9063 -3.875,12.4375 -3.875,4.5469 -10.5156,4.5469 m 19.5782,30.9219 0,-8.9844 q -3.7188,1.75 -7.5,2.6719 -3.7813,0.9375 -7.5,0.9375 -9.7657,0 -14.9219,-6.5938 -5.1407,-6.5937 -5.875,-19.9219 2.875,4.25 7.2187,6.5157 4.3594,2.2656 9.5782,2.2656 10.9843,0 17.3593,-6.6719 6.375,-6.6562 6.375,-18.125 0,-11.2344 -6.6406,-18.03122 -6.6406,-6.78126 -17.6719,-6.78126 -12.6562,0 -19.3437,9.6875 -6.68752,9.70318 -6.68752,28.10938 0,17.2812 8.20312,27.5625 8.2031,10.2813 22.0156,10.2813 3.7188,0 7.5,-0.7344 3.7813,-0.7344 7.8907,-2.1875"
         id="BitstreamVeraSans-Roman-36" />
    </defs>
    <defs
       id="defs3046">
      <path
         style="stroke-linecap:butt;stroke-linejoin:round"
         inkscape:connector-curvature="0"
         d="m 8.20312,72.9062 46.87498,0 0,-4.2031 L 28.6094,0 18.3125,0 l 24.9063,64.5938 -35.01568,0 z"
         id="BitstreamVeraSans-Roman-37" />
    </defs>
    <defs
       id="defs3035">
      <path
         style="stroke-linecap:butt;stroke-linejoin:round"
         inkscape:connector-curvature="0"
         d="m 31.7812,34.625 q -7.0312,0 -11.0624,-3.7656 -4.0157,-3.7656 -4.0157,-10.3438 0,-6.5937 4.0157,-10.3594 4.0312,-3.76558 11.0624,-3.76558 7.0313,0 11.0782,3.78128 4.0625,3.7969 4.0625,10.3437 0,6.5782 -4.0313,10.3438 -4.0156,3.7656 -11.1094,3.7656 m -9.8593,4.1875 Q 15.5781,40.375 12.0312,44.7188 8.5,49.0781 8.5,55.3281 q 0,8.7344 6.2188,13.8125 6.2343,5.0782 17.0624,5.0782 10.8907,0 17.0938,-5.0782 6.2031,-5.0781 6.2031,-13.8125 0,-6.25 -3.5469,-10.6093 Q 48,40.375 41.7031,38.8125 q 7.125,-1.6563 11.0938,-6.5 3.9843,-4.8281 3.9843,-11.7969 0,-10.60935 -6.4687,-16.28122 -6.4687,-5.65626 -18.5313,-5.65626 -12.0468,0 -18.5312,5.65626 -6.46875,5.67187 -6.46875,16.28122 0,6.9688 3.99995,11.7969 4.0157,4.8437 11.1407,6.5 m -3.6094,15.5781 q 0,-5.6562 3.5313,-8.8281 3.5468,-3.1719 9.9374,-3.1719 6.3594,0 9.9376,3.1719 3.5937,3.1719 3.5937,8.8281 0,5.6719 -3.5937,8.8438 -3.5782,3.1718 -9.9376,3.1718 -6.3906,0 -9.9374,-3.1718 -3.5313,-3.1719 -3.5313,-8.8438"
         id="BitstreamVeraSans-Roman-38" />
      <path
         style="stroke-linecap:butt;stroke-linejoin:round"
         inkscape:connector-curvature="0"
         d="m 10.7969,72.9062 38.7187,0 0,-8.3124 -29.6875,0 0,-17.8594 q 2.1407,0.7344 4.2813,1.0937 2.1562,0.3594 4.3125,0.3594 12.2031,0 19.3281,-6.6875 7.1406,-6.6875 7.1406,-18.1094 0,-11.7656 -7.3281,-18.29685 -7.3281,-6.51563 -20.6563,-6.51563 -4.5937,0 -9.3593,0.781255 -4.75,0.78125 -9.82815,2.343745 l 0,9.92188 q 4.39065,-2.39062 9.07815,-3.5625 4.6875,-1.17188 9.9062,-1.17188 8.4531,0 13.375,4.43748 4.9375,4.4375 4.9375,12.0625 0,7.6094 -4.9375,12.0469 -4.9219,4.4531 -13.375,4.4531 -3.9531,0 -7.8906,-0.875 -3.9219,-0.875 -8.0156,-2.7344 z"
         id="BitstreamVeraSans-Roman-35" />
    </defs>
    <defs
       id="defs3023">
      <path
         style="stroke-linecap:butt;stroke-linejoin:round"
         inkscape:connector-curvature="0"
         d="m 10.9844,1.51562 0,8.98438 Q 14.7031,8.73438 18.5,7.8125 q 3.8125,-0.92188 7.4844,-0.92188 9.7656,0 14.9062,6.56248 5.1563,6.5625 5.8906,19.9531 -2.8281,-4.2031 -7.1874,-6.4531 -4.3438,-2.25 -9.6094,-2.25 -10.9375,0 -17.3125,6.6094 -6.37502,6.625 -6.37502,18.1094 0,11.2187 6.64062,18 6.6406,6.7969 17.6719,6.7969 12.6562,0 19.3125,-9.7032 6.6719,-9.6875 6.6719,-28.1406 0,-17.2344 -8.1876,-27.51562 -8.1718,-10.28126 -21.9843,-10.28126 -3.7188,0 -7.5313,0.73438 -3.7968,0.734375 -7.9062,2.20312 m 19.625,30.90628 q 6.6406,0 10.5156,4.5312 3.8906,4.5469 3.8906,12.4688 0,7.8593 -3.8906,12.4219 -3.875,4.5624 -10.5156,4.5624 -6.6406,0 -10.5156,-4.5624 -3.875,-4.5626 -3.875,-12.4219 0,-7.9219 3.875,-12.4688 3.875,-4.5312 10.5156,-4.5312"
         id="BitstreamVeraSans-Roman-39" />
    </defs>
    <defs
       id="defs3009">
      <path
         style="stroke-linecap:butt;stroke-linejoin:round"
         inkscape:connector-curvature="0"
         d="m 31.7812,66.4062 q -7.6093,0 -11.4531,-7.5 Q 16.5,51.4219 16.5,36.375 q 0,-14.9844 3.8281,-22.4844 3.8438,-7.49998 11.4531,-7.49998 7.6719,0 11.5,7.49998 3.8438,7.5 3.8438,22.4844 0,15.0469 -3.8438,22.5312 -3.8281,7.5 -11.5,7.5 m 0,7.8126 q 12.2657,0 18.7344,-9.7032 6.4688,-9.6875 6.4688,-28.1406 0,-18.4062 -6.4688,-28.10938 -6.4687,-9.6875 -18.7344,-9.6875 -12.25,0 -18.7187,9.6875 -6.46875,9.70318 -6.46875,28.10938 0,18.4531 6.46875,28.1406 6.4687,9.7032 18.7187,9.7032"
         id="BitstreamVeraSans-Roman-30" />
      <path
         style="stroke-linecap:butt;stroke-linejoin:round"
         inkscape:connector-curvature="0"
         d="m 12.4062,8.29688 16.1094,0 0,55.62502 -17.5312,-3.5157 0,8.9844 17.4375,3.5156 9.8593,0 0,-64.60932 16.1094,0 0,-8.29688 -41.9844,0 z"
         id="BitstreamVeraSans-Roman-31" />
      <path
         style="stroke-linecap:butt;stroke-linejoin:round"
         inkscape:connector-curvature="0"
         d="m 37.7969,64.3125 -24.9063,-38.9219 24.9063,0 z m -2.5938,8.5937 12.4063,0 0,-47.5156 10.4062,0 0,-8.2031 -10.4062,0 0,-17.1875 -9.8125,0 0,17.1875 -32.90628,0 0,9.5156 z"
         id="BitstreamVeraSans-Roman-34" />
    </defs>
  </defs>
  <sodipodi:namedview
     id="base"
     pagecolor="#ffffff"
     bordercolor="#666666"
     borderopacity="1.0"
     inkscape:pageopacity="0.0"
     inkscape:pageshadow="2"
     inkscape:zoom="1.7275421"
     inkscape:cx="228.34805"
     inkscape:cy="115.96696"
     inkscape:document-units="px"
     inkscape:current-layer="g4428"
     showgrid="false"
     fit-margin-top="0"
     fit-margin-left="0"
     fit-margin-right="0"
     fit-margin-bottom="0"
     inkscape:window-width="1871"
     inkscape:window-height="1056"
     inkscape:window-x="1969"
     inkscape:window-y="24"
     inkscape:window-maximized="1" />
  <metadata
     id="metadata7">
    <rdf:RDF>
      <cc:Work
         rdf:about="">
        <dc:format>image/svg+xml</dc:format>
        <dc:type
           rdf:resource="http://purl.org/dc/dcmitype/StillImage" />
        <dc:title></dc:title>
      </cc:Work>
    </rdf:RDF>
  </metadata>
  <g
     inkscape:label="Layer 1"
     inkscape:groupmode="layer"
     id="layer1"
     transform="translate(-20.153688,-371.19574)">
    <g
       id="g4397"
       transform="translate(-76.132361,-79.406872)"
       style="stroke-linecap:butt;stroke-linejoin:round">
      <g
         id="g4428"
         transform="translate(-87.593147,149.80884)"
         style="stroke-linecap:butt;stroke-linejoin:round"
         inkscape:export-filename="/home/dan/git/effective-capacity/res/FIG2.png"
         inkscape:export-xdpi="346.95721"
         inkscape:export-ydpi="346.95721">
        <g
           id="g4928">
          <path
             transform="matrix(1.25,0,0,1.25,78.571429,243.79075)"
             id="path2997"
             style="opacity:0.4;fill:#ffcc00;stroke-linecap:butt;stroke-linejoin:round"
             d="m 316.117,144.092 c -0.537,11.175 -3.508,22.099 -8.704,32.006 -5.196,9.908 -12.493,18.563 -21.38,25.359 -2.794,5.642 -6.531,10.767 -11.049,15.151 -4.519,4.385 -9.753,7.966 -15.477,10.589 16.279,-7.148 30.223,-18.734 40.232,-33.428 10.009,-14.694 15.686,-31.911 16.378,-49.677 m 0,-7.384 c -0.388,-9.972 -2.349,-19.821 -5.81,-29.181 -3.461,-9.3602 -8.378,-18.1156 -14.569,-25.9422 -6.192,-7.8266 -13.581,-14.6266 -21.893,-20.1485 -8.313,-5.5218 -17.446,-9.6965 -27.061,-12.3697 -9.615,-2.6731 -19.592,-3.8113 -29.561,-3.3725 -9.97,0.4389 -19.809,2.4494 -29.151,5.9571 -9.343,3.5077 -18.074,8.4687 -25.869,14.6997 -7.795,6.2309 -14.558,13.6539 -20.038,21.9943 -5.48,8.3403 -9.609,17.4938 -12.233,27.1218 -2.625,9.629 -3.713,19.611 -3.224,29.579 0.489,9.967 2.549,19.795 6.104,29.12 3.554,9.325 8.559,18.031 14.829,25.795 6.27,7.764 13.727,14.489 22.095,19.927 8.368,5.438 17.542,9.52 27.184,12.096 9.641,2.577 19.629,3.614 29.594,3.075 9.965,-0.539 19.782,-2.649 29.089,-6.25 -7.036,2.595 -14.528,3.732 -22.018,3.341 -7.49,-0.39 -14.823,-2.301 -21.552,-5.614 -6.728,-3.313 -12.713,-7.96 -17.59,-13.659 -4.876,-5.698 -8.543,-12.33 -10.777,-19.49 -8.55,-8.984 -14.8,-19.906 -18.214,-31.829 -3.414,-11.924 -3.892,-24.498 -1.393,-36.647 2.5,-12.148 7.903,-23.513 15.746,-33.12 7.844,-9.6074 17.898,-17.175 29.3,-22.0545 11.403,-4.8794 23.819,-6.9273 36.184,-5.9679 12.366,0.9593 24.317,4.8975 34.831,11.4771 10.513,6.5797 19.28,15.6074 25.548,26.3093 6.268,10.702 9.853,22.764 10.449,35.153"
             clip-path="url(#p828c69dd68)"
             inkscape:connector-curvature="0" />
          <path
             transform="matrix(1.25,0,0,1.25,78.571429,243.79075)"
             id="path3000"
             style="opacity:0.4;fill:#a05a2c;stroke-linecap:butt;stroke-linejoin:round"
             d="M 316.117,136.708 C 315.521,124.319 311.936,112.257 305.668,101.555 299.4,90.8531 290.633,81.8254 280.12,75.2457 269.606,68.6661 257.655,64.7279 245.289,63.7686 c -12.365,-0.9594 -24.781,1.0885 -36.184,5.9679 -11.402,4.8795 -21.456,12.4471 -29.3,22.0545 -7.843,9.607 -13.246,20.972 -15.746,33.12 -2.499,12.149 -2.021,24.723 1.393,36.647 3.414,11.923 9.664,22.845 18.214,31.829 -2.692,-8.63 -3.228,-17.79 -1.56,-26.676 1.668,-8.885 5.49,-17.228 11.129,-24.294 5.639,-7.067 12.926,-12.644 21.22,-16.242 8.293,-3.598 17.344,-5.108 26.357,-4.397 9.013,0.71 17.716,3.62 25.343,8.473 7.628,4.853 13.951,11.502 18.413,19.365 4.463,7.863 6.93,16.701 7.185,25.738 0.255,9.037 -1.709,18 -5.72,26.103 8.887,-6.796 16.184,-15.451 21.38,-25.359 5.196,-9.907 8.167,-20.831 8.704,-32.006 0.048,-1.23 0.072,-2.461 0.072,-3.692 0,-1.231 -0.024,-2.462 -0.072,-3.692"
             clip-path="url(#p828c69dd68)"
             inkscape:connector-curvature="0" />
          <path
             transform="matrix(1.25,0,0,1.25,78.571429,243.79075)"
             id="path3003"
             style="opacity:0.4;fill:#87dea4;fill-opacity:1;stroke-linecap:butt;stroke-linejoin:round"
             d="m 286.033,201.457 c -15.052,11.509 -33.84,17.056 -52.729,15.567 -18.889,-1.489 -36.576,-9.911 -49.638,-23.637 2.234,7.16 5.901,13.792 10.777,19.49 4.877,5.699 10.862,10.346 17.59,13.659 6.729,3.313 14.062,5.224 21.552,5.614 7.49,0.391 14.982,-0.746 22.018,-3.341 0.657,-0.254 1.311,-0.516 1.961,-0.784 0.651,-0.269 1.299,-0.545 1.943,-0.828 5.724,-2.623 10.958,-6.204 15.477,-10.589 4.518,-4.384 8.255,-9.509 11.049,-15.151"
             clip-path="url(#p828c69dd68)"
             inkscape:connector-curvature="0" />
          <path
             transform="matrix(1.25,0,0,1.25,78.571429,243.79075)"
             id="path3006"
             style="opacity:0.4;fill:#3063af;fill-opacity:1;stroke-linecap:butt;stroke-linejoin:round"
             d="m 183.666,193.387 c 13.062,13.726 30.749,22.148 49.638,23.637 18.889,1.489 37.677,-4.058 52.729,-15.567 4.011,-8.103 5.975,-17.066 5.72,-26.103 -0.255,-9.037 -2.722,-17.875 -7.185,-25.738 -4.462,-7.863 -10.785,-14.512 -18.413,-19.365 -7.627,-4.853 -16.33,-7.763 -25.343,-8.473 -9.013,-0.711 -18.064,0.799 -26.357,4.397 -8.294,3.598 -15.581,9.175 -21.22,16.242 -5.639,7.066 -9.461,15.409 -11.129,24.294 -1.668,8.886 -1.132,18.046 1.56,26.676"
             clip-path="url(#p828c69dd68)"
             inkscape:connector-curvature="0" />
          <text
             sodipodi:linespacing="125%"
             id="text3611"
             y="327.67303"
             x="225.95363"
             style="font-size:16.50289154px;font-style:normal;font-weight:normal;text-align:center;line-height:125%;letter-spacing:0px;word-spacing:0px;text-anchor:middle;fill:#ffeb99;fill-opacity:1;stroke:none;font-family:Sans;-inkscape-font-specification:Sans"
             xml:space="preserve"><tspan
               style="font-weight:normal;fill:#ffd31f;fill-opacity:1;-inkscape-font-specification:Sans Bold"
               y="327.67303"
               x="225.95363"
               id="tspan3613"
               sodipodi:role="line">enzymes</tspan><tspan
               style="font-weight:normal;fill:#ffd31f;fill-opacity:1;-inkscape-font-specification:Sans Bold"
               id="tspan3615"
               y="348.30164"
               x="225.95363"
               sodipodi:role="line">1366</tspan></text>
          <text
             xml:space="preserve"
             style="font-size:16.50289154px;font-style:normal;font-weight:normal;text-align:center;line-height:125%;letter-spacing:0px;word-spacing:0px;text-anchor:middle;fill:#b47d5a;fill-opacity:1;stroke:none;font-family:Sans;-inkscape-font-specification:Sans"
             x="483.68842"
             y="324.82751"
             id="text4385"
             sodipodi:linespacing="125%"><tspan
               sodipodi:role="line"
               id="tspan4387"
               x="483.68842"
               y="324.82751"
               style="font-weight:normal;fill:#b47d5a;fill-opacity:1;-inkscape-font-specification:Sans Bold">expressed</tspan><tspan
               sodipodi:role="line"
               x="483.68842"
               y="345.45612"
               id="tspan4389"
               style="font-weight:normal;fill:#b47d5a;fill-opacity:1;-inkscape-font-specification:Sans Bold">898</tspan></text>
          <text
             sodipodi:linespacing="125%"
             id="text4391"
             y="494.18854"
             x="496.55917"
             style="font-size:16.50289154px;font-style:normal;font-weight:normal;text-align:center;line-height:125%;letter-spacing:0px;word-spacing:0px;text-anchor:middle;fill:#4388ee;fill-opacity:1;stroke:none;font-family:Sans;-inkscape-font-specification:Sans"
             xml:space="preserve"><tspan
               style="font-weight:normal;fill:#4388ee;fill-opacity:1;-inkscape-font-specification:Sans Bold"
               y="494.18854"
               x="496.55917"
               id="tspan4393"
               sodipodi:role="line">carry flux</tspan><tspan
               style="font-weight:normal;fill:#4388ee;fill-opacity:1;-inkscape-font-specification:Sans Bold"
               id="tspan4395"
               y="514.81714"
               x="496.55917"
               sodipodi:role="line">408</tspan></text>
          <text
             sodipodi:linespacing="125%"
             id="text4904"
             y="346.92712"
             x="380.72925"
             style="font-size:16.50289154px;font-style:normal;font-weight:normal;text-align:center;line-height:125%;letter-spacing:0px;word-spacing:0px;text-anchor:middle;fill:#000000;fill-opacity:1;stroke:none;font-family:Sans;-inkscape-font-specification:Sans"
             xml:space="preserve"><tspan
               style="font-weight:normal;fill:#000000;fill-opacity:1;-inkscape-font-specification:Sans"
               y="346.92712"
               x="380.72925"
               id="tspan4906"
               sodipodi:role="line" /><tspan
               style="font-weight:normal;fill:#000000;fill-opacity:1;-inkscape-font-specification:Sans"
               id="tspan4908"
               y="367.55573"
               x="380.72925"
               sodipodi:role="line">491</tspan></text>
          <text
             xml:space="preserve"
             style="font-size:16.50289154px;font-style:normal;font-weight:normal;text-align:center;line-height:125%;letter-spacing:0px;word-spacing:0px;text-anchor:middle;fill:#000000;fill-opacity:1;stroke:none;font-family:Sans;-inkscape-font-specification:Sans"
             x="253.26115"
             y="401.5412"
             id="text4910"
             sodipodi:linespacing="125%"><tspan
               sodipodi:role="line"
               id="tspan4912"
               x="253.26115"
               y="401.5412"
               style="font-weight:normal;fill:#000000;fill-opacity:1;-inkscape-font-specification:Sans" /><tspan
               sodipodi:role="line"
               x="253.26115"
               y="422.1698"
               id="tspan4914"
               style="font-weight:normal;fill:#000000;fill-opacity:1;-inkscape-font-specification:Sans">410</tspan></text>
          <text
             sodipodi:linespacing="125%"
             id="text4916"
             y="435.12314"
             x="380.67285"
             style="font-size:16.50289154px;font-style:normal;font-weight:normal;text-align:center;line-height:125%;letter-spacing:0px;word-spacing:0px;text-anchor:middle;fill:#000000;fill-opacity:1;stroke:none;font-family:Sans;-inkscape-font-specification:Sans"
             xml:space="preserve"><tspan
               style="font-weight:normal;fill:#000000;fill-opacity:1;-inkscape-font-specification:Sans"
               y="435.12314"
               x="380.67285"
               id="tspan4918"
               sodipodi:role="line" /><tspan
               style="font-weight:normal;fill:#000000;fill-opacity:1;-inkscape-font-specification:Sans"
               id="tspan4920"
               y="455.75174"
               x="380.67285"
               sodipodi:role="line">407</tspan></text>
          <text
             xml:space="preserve"
             style="font-size:16.50289154px;font-style:normal;font-weight:normal;text-align:center;line-height:125%;letter-spacing:0px;word-spacing:0px;text-anchor:middle;fill:#000000;fill-opacity:1;stroke:none;font-family:Sans;-inkscape-font-specification:Sans"
             x="380.29816"
             y="509.43118"
             id="text4922"
             sodipodi:linespacing="125%"><tspan
               sodipodi:role="line"
               id="tspan4924"
               x="380.29816"
               y="509.43118"
               style="font-weight:normal;fill:#000000;fill-opacity:1;-inkscape-font-specification:Sans" /><tspan
               sodipodi:role="line"
               x="380.29816"
               y="530.05981"
               id="tspan4926"
               style="font-weight:normal;fill:#000000;fill-opacity:1;-inkscape-font-specification:Sans">58</tspan></text>
        </g>
      </g>
    </g>
  </g>
</svg>
