<?xml version="1.0" encoding="utf-8" standalone="no"?>
<!DOCTYPE svg PUBLIC "-//W3C//DTD SVG 1.1//EN"
  "http://www.w3.org/Graphics/SVG/1.1/DTD/svg11.dtd">
<!-- Created with matplotlib (http://matplotlib.org/) -->
<svg height="576pt" version="1.1" viewBox="0 0 576 576" width="576pt" xmlns="http://www.w3.org/2000/svg" xmlns:xlink="http://www.w3.org/1999/xlink">
 <defs>
  <style type="text/css">
*{stroke-linecap:butt;stroke-linejoin:round;stroke-miterlimit:100000;}
  </style>
 </defs>
 <g id="figure_1">
  <g id="patch_1">
   <path d="M 0 576 
L 576 576 
L 576 0 
L 0 0 
z
" style="fill:#ffffff;"/>
  </g>
  <g id="axes_1">
   <g id="patch_2">
    <path d="M 57.15 523.100391 
L 553.275 523.100391 
L 553.275 17.55 
L 57.15 17.55 
z
" style="fill:#f2f2f2;"/>
   </g>
   <g id="PathCollection_1">
    <path clip-path="url(#p9006a7549b)" d="M 116.685 448.684197 
C 117.871024 448.684197 119.008632 448.212985 119.847278 447.374339 
C 120.685923 446.535693 121.157136 445.398085 121.157136 444.212061 
C 121.157136 443.026037 120.685923 441.888429 119.847278 441.049784 
C 119.008632 440.211138 117.871024 439.739925 116.685 439.739925 
C 115.498976 439.739925 114.361368 440.211138 113.522722 441.049784 
C 112.684077 441.888429 112.212864 443.026037 112.212864 444.212061 
C 112.212864 445.398085 112.684077 446.535693 113.522722 447.374339 
C 114.361368 448.212985 115.498976 448.684197 116.685 448.684197 
z
" style="fill:#ff4d4d;"/>
   </g>
   <g id="PathCollection_2">
    <path clip-path="url(#p9006a7549b)" d="M 156.375 406.086357 
C 157.561024 406.086357 158.698632 405.615144 159.537278 404.776499 
C 160.375923 403.937853 160.847136 402.800245 160.847136 401.614221 
C 160.847136 400.428197 160.375923 399.290589 159.537278 398.451943 
C 158.698632 397.613297 157.561024 397.142085 156.375 397.142085 
C 155.188976 397.142085 154.051368 397.613297 153.212722 398.451943 
C 152.374077 399.290589 151.902864 400.428197 151.902864 401.614221 
C 151.902864 402.800245 152.374077 403.937853 153.212722 404.776499 
C 154.051368 405.615144 155.188976 406.086357 156.375 406.086357 
z
" style="fill:#ff4d4d;"/>
   </g>
   <g id="PathCollection_3">
    <path clip-path="url(#p9006a7549b)" d="M 186.1425 362.572513 
C 187.328524 362.572513 188.466132 362.101301 189.304778 361.262655 
C 190.143423 360.424009 190.614636 359.286402 190.614636 358.100377 
C 190.614636 356.914353 190.143423 355.776745 189.304778 354.9381 
C 188.466132 354.099454 187.328524 353.628241 186.1425 353.628241 
C 184.956476 353.628241 183.818868 354.099454 182.980222 354.9381 
C 182.141577 355.776745 181.670364 356.914353 181.670364 358.100377 
C 181.670364 359.286402 182.141577 360.424009 182.980222 361.262655 
C 183.818868 362.101301 184.956476 362.572513 186.1425 362.572513 
z
" style="fill:#ff4d4d;"/>
   </g>
   <g id="PathCollection_4">
    <path clip-path="url(#p9006a7549b)" d="M 205.9875 283.682491 
C 207.173524 283.682491 208.311132 283.211278 209.149778 282.372632 
C 209.988423 281.533987 210.459636 280.396379 210.459636 279.210355 
C 210.459636 278.02433 209.988423 276.886723 209.149778 276.048077 
C 208.311132 275.209431 207.173524 274.738219 205.9875 274.738219 
C 204.801476 274.738219 203.663868 275.209431 202.825222 276.048077 
C 201.986577 276.886723 201.515364 278.02433 201.515364 279.210355 
C 201.515364 280.396379 201.986577 281.533987 202.825222 282.372632 
C 203.663868 283.211278 204.801476 283.682491 205.9875 283.682491 
z
" style="fill:#ff4d4d;"/>
   </g>
   <g id="PathCollection_5">
    <path clip-path="url(#p9006a7549b)" d="M 230.79375 327.852285 
C 231.979774 327.852285 233.117382 327.381072 233.956028 326.542426 
C 234.794673 325.70378 235.265886 324.566173 235.265886 323.380149 
C 235.265886 322.194124 234.794673 321.056517 233.956028 320.217871 
C 233.117382 319.379225 231.979774 318.908013 230.79375 318.908013 
C 229.607726 318.908013 228.470118 319.379225 227.631472 320.217871 
C 226.792827 321.056517 226.321614 322.194124 226.321614 323.380149 
C 226.321614 324.566173 226.792827 325.70378 227.631472 326.542426 
C 228.470118 327.381072 229.607726 327.852285 230.79375 327.852285 
z
" style="fill:#ff4d4d;"/>
   </g>
   <g id="PathCollection_6">
    <path clip-path="url(#p9006a7549b)" d="M 255.6 262.211299 
C 256.786024 262.211299 257.923632 261.740086 258.762278 260.901441 
C 259.600923 260.062795 260.072136 258.925187 260.072136 257.739163 
C 260.072136 256.553139 259.600923 255.415531 258.762278 254.576885 
C 257.923632 253.738239 256.786024 253.267027 255.6 253.267027 
C 254.413976 253.267027 253.276368 253.738239 252.437722 254.576885 
C 251.599077 255.415531 251.127864 256.553139 251.127864 257.739163 
C 251.127864 258.925187 251.599077 260.062795 252.437722 260.901441 
C 253.276368 261.740086 254.413976 262.211299 255.6 262.211299 
z
" style="fill:#ff4d4d;"/>
   </g>
   <g id="PathCollection_7">
    <path clip-path="url(#p9006a7549b)" d="M 265.5225 236.022791 
C 266.708524 236.022791 267.846132 235.551578 268.684778 234.712933 
C 269.523423 233.874287 269.994636 232.736679 269.994636 231.550655 
C 269.994636 230.364631 269.523423 229.227023 268.684778 228.388377 
C 267.846132 227.549731 266.708524 227.078519 265.5225 227.078519 
C 264.336476 227.078519 263.198868 227.549731 262.360222 228.388377 
C 261.521577 229.227023 261.050364 230.364631 261.050364 231.550655 
C 261.050364 232.736679 261.521577 233.874287 262.360222 234.712933 
C 263.198868 235.551578 264.336476 236.022791 265.5225 236.022791 
z
" style="fill:#ff4d4d;"/>
   </g>
   <g id="PathCollection_8">
    <path clip-path="url(#p9006a7549b)" d="M 275.445 238.384541 
C 276.631024 238.384541 277.768632 237.913329 278.607278 237.074683 
C 279.445923 236.236037 279.917136 235.098429 279.917136 233.912405 
C 279.917136 232.726381 279.445923 231.588773 278.607278 230.750128 
C 277.768632 229.911482 276.631024 229.440269 275.445 229.440269 
C 274.258976 229.440269 273.121368 229.911482 272.282722 230.750128 
C 271.444077 231.588773 270.972864 232.726381 270.972864 233.912405 
C 270.972864 235.098429 271.444077 236.236037 272.282722 237.074683 
C 273.121368 237.913329 274.258976 238.384541 275.445 238.384541 
z
" style="fill:#ff4d4d;"/>
   </g>
   <g id="PathCollection_9">
    <path clip-path="url(#p9006a7549b)" d="M 285.3675 276.801836 
C 286.553524 276.801836 287.691132 276.330624 288.529778 275.491978 
C 289.368423 274.653332 289.839636 273.515725 289.839636 272.3297 
C 289.839636 271.143676 289.368423 270.006069 288.529778 269.167423 
C 287.691132 268.328777 286.553524 267.857564 285.3675 267.857564 
C 284.181476 267.857564 283.043868 268.328777 282.205222 269.167423 
C 281.366577 270.006069 280.895364 271.143676 280.895364 272.3297 
C 280.895364 273.515725 281.366577 274.653332 282.205222 275.491978 
C 283.043868 276.330624 284.181476 276.801836 285.3675 276.801836 
z
" style="fill:#ff4d4d;"/>
   </g>
   <g id="PathCollection_10">
    <path clip-path="url(#p9006a7549b)" d="M 290.32875 277.840505 
C 291.514774 277.840505 292.652382 277.369293 293.491028 276.530647 
C 294.329673 275.692001 294.800886 274.554394 294.800886 273.36837 
C 294.800886 272.182345 294.329673 271.044738 293.491028 270.206092 
C 292.652382 269.367446 291.514774 268.896234 290.32875 268.896234 
C 289.142726 268.896234 288.005118 269.367446 287.166472 270.206092 
C 286.327827 271.044738 285.856614 272.182345 285.856614 273.36837 
C 285.856614 274.554394 286.327827 275.692001 287.166472 276.530647 
C 288.005118 277.369293 289.142726 277.840505 290.32875 277.840505 
z
" style="fill:#ff4d4d;"/>
   </g>
   <g id="PathCollection_11">
    <path clip-path="url(#p9006a7549b)" d="M 290.32875 264.255835 
C 291.514774 264.255835 292.652382 263.784623 293.491028 262.945977 
C 294.329673 262.107331 294.800886 260.969724 294.800886 259.783699 
C 294.800886 258.597675 294.329673 257.460067 293.491028 256.621422 
C 292.652382 255.782776 291.514774 255.311563 290.32875 255.311563 
C 289.142726 255.311563 288.005118 255.782776 287.166472 256.621422 
C 286.327827 257.460067 285.856614 258.597675 285.856614 259.783699 
C 285.856614 260.969724 286.327827 262.107331 287.166472 262.945977 
C 288.005118 263.784623 289.142726 264.255835 290.32875 264.255835 
z
" style="fill:#ff4d4d;"/>
   </g>
   <g id="PathCollection_12">
    <path clip-path="url(#p9006a7549b)" d="M 305.2125 264.669337 
C 306.398524 264.669337 307.536132 264.198124 308.374778 263.359479 
C 309.213423 262.520833 309.684636 261.383225 309.684636 260.197201 
C 309.684636 259.011177 309.213423 257.873569 308.374778 257.034923 
C 307.536132 256.196277 306.398524 255.725065 305.2125 255.725065 
C 304.026476 255.725065 302.888868 256.196277 302.050222 257.034923 
C 301.211577 257.873569 300.740364 259.011177 300.740364 260.197201 
C 300.740364 261.383225 301.211577 262.520833 302.050222 263.359479 
C 302.888868 264.198124 304.026476 264.669337 305.2125 264.669337 
z
" style="fill:#ff4d4d;"/>
   </g>
   <g id="PathCollection_13">
    <path clip-path="url(#p9006a7549b)" d="M 330.01875 237.706015 
C 331.204774 237.706015 332.342382 237.234803 333.181028 236.396157 
C 334.019673 235.557511 334.490886 234.419904 334.490886 233.233879 
C 334.490886 232.047855 334.019673 230.910248 333.181028 230.071602 
C 332.342382 229.232956 331.204774 228.761743 330.01875 228.761743 
C 328.832726 228.761743 327.695118 229.232956 326.856472 230.071602 
C 326.017827 230.910248 325.546614 232.047855 325.546614 233.233879 
C 325.546614 234.419904 326.017827 235.557511 326.856472 236.396157 
C 327.695118 237.234803 328.832726 237.706015 330.01875 237.706015 
z
" style="fill:#ff4d4d;"/>
   </g>
   <g id="PathCollection_14">
    <path clip-path="url(#p9006a7549b)" d="M 330.01875 222.152138 
C 331.204774 222.152138 332.342382 221.680925 333.181028 220.842279 
C 334.019673 220.003634 334.490886 218.866026 334.490886 217.680002 
C 334.490886 216.493977 334.019673 215.35637 333.181028 214.517724 
C 332.342382 213.679078 331.204774 213.207866 330.01875 213.207866 
C 328.832726 213.207866 327.695118 213.679078 326.856472 214.517724 
C 326.017827 215.35637 325.546614 216.493977 325.546614 217.680002 
C 325.546614 218.866026 326.017827 220.003634 326.856472 220.842279 
C 327.695118 221.680925 328.832726 222.152138 330.01875 222.152138 
z
" style="fill:#ff4d4d;"/>
   </g>
   <g id="PathCollection_15">
    <path clip-path="url(#p9006a7549b)" d="M 344.9025 224.837535 
C 346.088524 224.837535 347.226132 224.366323 348.064778 223.527677 
C 348.903423 222.689031 349.374636 221.551424 349.374636 220.365399 
C 349.374636 219.179375 348.903423 218.041768 348.064778 217.203122 
C 347.226132 216.364476 346.088524 215.893263 344.9025 215.893263 
C 343.716476 215.893263 342.578868 216.364476 341.740222 217.203122 
C 340.901577 218.041768 340.430364 219.179375 340.430364 220.365399 
C 340.430364 221.551424 340.901577 222.689031 341.740222 223.527677 
C 342.578868 224.366323 343.716476 224.837535 344.9025 224.837535 
z
" style="fill:#ff4d4d;"/>
   </g>
   <g id="PathCollection_16">
    <path clip-path="url(#p9006a7549b)" d="M 369.70875 194.72186 
C 370.894774 194.72186 372.032382 194.250648 372.871028 193.412002 
C 373.709673 192.573356 374.180886 191.435749 374.180886 190.249724 
C 374.180886 189.0637 373.709673 187.926092 372.871028 187.087447 
C 372.032382 186.248801 370.894774 185.777588 369.70875 185.777588 
C 368.522726 185.777588 367.385118 186.248801 366.546472 187.087447 
C 365.707827 187.926092 365.236614 189.0637 365.236614 190.249724 
C 365.236614 191.435749 365.707827 192.573356 366.546472 193.412002 
C 367.385118 194.250648 368.522726 194.72186 369.70875 194.72186 
z
" style="fill:#ff4d4d;"/>
   </g>
   <g id="PathCollection_17">
    <path clip-path="url(#p9006a7549b)" d="M 379.63125 182.765112 
C 380.817274 182.765112 381.954882 182.293899 382.793528 181.455253 
C 383.632173 180.616608 384.103386 179.479 384.103386 178.292976 
C 384.103386 177.106951 383.632173 175.969344 382.793528 175.130698 
C 381.954882 174.292052 380.817274 173.82084 379.63125 173.82084 
C 378.445226 173.82084 377.307618 174.292052 376.468972 175.130698 
C 375.630327 175.969344 375.159114 177.106951 375.159114 178.292976 
C 375.159114 179.479 375.630327 180.616608 376.468972 181.455253 
C 377.307618 182.293899 378.445226 182.765112 379.63125 182.765112 
z
" style="fill:#ff4d4d;"/>
   </g>
   <g id="PathCollection_18">
    <path clip-path="url(#p9006a7549b)" d="M 384.5925 155.457032 
C 385.778524 155.457032 386.916132 154.98582 387.754778 154.147174 
C 388.593423 153.308528 389.064636 152.170921 389.064636 150.984896 
C 389.064636 149.798872 388.593423 148.661265 387.754778 147.822619 
C 386.916132 146.983973 385.778524 146.51276 384.5925 146.51276 
C 383.406476 146.51276 382.268868 146.983973 381.430222 147.822619 
C 380.591577 148.661265 380.120364 149.798872 380.120364 150.984896 
C 380.120364 152.170921 380.591577 153.308528 381.430222 154.147174 
C 382.268868 154.98582 383.406476 155.457032 384.5925 155.457032 
z
" style="fill:#ff4d4d;"/>
   </g>
   <g id="LineCollection_1">
    <path clip-path="url(#p9006a7549b)" d="M 116.685 445.170962 
L 116.685 443.253161 
" style="fill:none;stroke:#000000;"/>
   </g>
   <g id="LineCollection_2">
    <path clip-path="url(#p9006a7549b)" d="M 156.375 403.083006 
L 156.375 400.145436 
" style="fill:none;stroke:#000000;"/>
   </g>
   <g id="LineCollection_3">
    <path clip-path="url(#p9006a7549b)" d="M 186.1425 377.696513 
L 186.1425 338.504242 
" style="fill:none;stroke:#000000;"/>
   </g>
   <g id="LineCollection_4">
    <path clip-path="url(#p9006a7549b)" d="M 205.9875 313.282413 
L 205.9875 245.138296 
" style="fill:none;stroke:#000000;"/>
   </g>
   <g id="LineCollection_5">
    <path clip-path="url(#p9006a7549b)" d="M 230.79375 325.647666 
L 230.79375 321.112631 
" style="fill:none;stroke:#000000;"/>
   </g>
   <g id="LineCollection_6">
    <path clip-path="url(#p9006a7549b)" d="M 255.6 274.627567 
L 255.6 240.850759 
" style="fill:none;stroke:#000000;"/>
   </g>
   <g id="LineCollection_7">
    <path clip-path="url(#p9006a7549b)" d="M 265.5225 243.691941 
L 265.5225 219.409369 
" style="fill:none;stroke:#000000;"/>
   </g>
   <g id="LineCollection_8">
    <path clip-path="url(#p9006a7549b)" d="M 275.445 238.84143 
L 275.445 228.98338 
" style="fill:none;stroke:#000000;"/>
   </g>
   <g id="LineCollection_9">
    <path clip-path="url(#p9006a7549b)" d="M 285.3675 292.912957 
L 285.3675 251.746444 
" style="fill:none;stroke:#000000;"/>
   </g>
   <g id="LineCollection_10">
    <path clip-path="url(#p9006a7549b)" d="M 290.32875 279.417777 
L 290.32875 267.318962 
" style="fill:none;stroke:#000000;"/>
   </g>
   <g id="LineCollection_11">
    <path clip-path="url(#p9006a7549b)" d="M 290.32875 282.70372 
L 290.32875 236.863678 
" style="fill:none;stroke:#000000;"/>
   </g>
   <g id="LineCollection_12">
    <path clip-path="url(#p9006a7549b)" d="M 305.2125 263.356308 
L 305.2125 257.038094 
" style="fill:none;stroke:#000000;"/>
   </g>
   <g id="LineCollection_13">
    <path clip-path="url(#p9006a7549b)" d="M 330.01875 236.671018 
L 330.01875 229.796741 
" style="fill:none;stroke:#000000;"/>
   </g>
   <g id="LineCollection_14">
    <path clip-path="url(#p9006a7549b)" d="M 330.01875 231.612272 
L 330.01875 203.747732 
" style="fill:none;stroke:#000000;"/>
   </g>
   <g id="LineCollection_15">
    <path clip-path="url(#p9006a7549b)" d="M 344.9025 223.862487 
L 344.9025 216.868311 
" style="fill:none;stroke:#000000;"/>
   </g>
   <g id="LineCollection_16">
    <path clip-path="url(#p9006a7549b)" d="M 369.70875 194.479104 
L 369.70875 186.020345 
" style="fill:none;stroke:#000000;"/>
   </g>
   <g id="LineCollection_17">
    <path clip-path="url(#p9006a7549b)" d="M 379.63125 202.689505 
L 379.63125 153.896447 
" style="fill:none;stroke:#000000;"/>
   </g>
   <g id="LineCollection_18">
    <path clip-path="url(#p9006a7549b)" d="M 384.5925 155.51951 
L 384.5925 146.450283 
" style="fill:none;stroke:#000000;"/>
   </g>
   <g id="line2d_1">
    <defs>
     <path d="M 3 0 
L -3 -0 
" id="mb25adc5879" style="stroke:#000000;stroke-width:0.5;"/>
    </defs>
    <g clip-path="url(#p9006a7549b)">
     <use style="stroke:#000000;stroke-width:0.5;" x="116.685" xlink:href="#mb25adc5879" y="445.170961605"/>
    </g>
   </g>
   <g id="line2d_2">
    <g clip-path="url(#p9006a7549b)">
     <use style="stroke:#000000;stroke-width:0.5;" x="116.685" xlink:href="#mb25adc5879" y="443.253160754"/>
    </g>
   </g>
   <g id="line2d_3">
    <path clip-path="url(#p9006a7549b)" d="M 116.685 444.212061 
" style="fill:none;stroke:#000000;stroke-linecap:square;"/>
   </g>
   <g id="line2d_4">
    <g clip-path="url(#p9006a7549b)">
     <use style="stroke:#000000;stroke-width:0.5;" x="156.375" xlink:href="#mb25adc5879" y="403.083005548"/>
    </g>
   </g>
   <g id="line2d_5">
    <g clip-path="url(#p9006a7549b)">
     <use style="stroke:#000000;stroke-width:0.5;" x="156.375" xlink:href="#mb25adc5879" y="400.145436379"/>
    </g>
   </g>
   <g id="line2d_6">
    <path clip-path="url(#p9006a7549b)" d="M 156.375 401.614221 
" style="fill:none;stroke:#000000;stroke-linecap:square;"/>
   </g>
   <g id="line2d_7">
    <g clip-path="url(#p9006a7549b)">
     <use style="stroke:#000000;stroke-width:0.5;" x="186.1425" xlink:href="#mb25adc5879" y="377.696513099"/>
    </g>
   </g>
   <g id="line2d_8">
    <g clip-path="url(#p9006a7549b)">
     <use style="stroke:#000000;stroke-width:0.5;" x="186.1425" xlink:href="#mb25adc5879" y="338.504241523"/>
    </g>
   </g>
   <g id="line2d_9">
    <path clip-path="url(#p9006a7549b)" d="M 186.1425 358.100377 
" style="fill:none;stroke:#000000;stroke-linecap:square;"/>
   </g>
   <g id="line2d_10">
    <g clip-path="url(#p9006a7549b)">
     <use style="stroke:#000000;stroke-width:0.5;" x="205.9875" xlink:href="#mb25adc5879" y="313.282413138"/>
    </g>
   </g>
   <g id="line2d_11">
    <g clip-path="url(#p9006a7549b)">
     <use style="stroke:#000000;stroke-width:0.5;" x="205.9875" xlink:href="#mb25adc5879" y="245.138296463"/>
    </g>
   </g>
   <g id="line2d_12">
    <path clip-path="url(#p9006a7549b)" d="M 205.9875 279.210355 
" style="fill:none;stroke:#000000;stroke-linecap:square;"/>
   </g>
   <g id="line2d_13">
    <g clip-path="url(#p9006a7549b)">
     <use style="stroke:#000000;stroke-width:0.5;" x="230.79375" xlink:href="#mb25adc5879" y="325.647666093"/>
    </g>
   </g>
   <g id="line2d_14">
    <g clip-path="url(#p9006a7549b)">
     <use style="stroke:#000000;stroke-width:0.5;" x="230.79375" xlink:href="#mb25adc5879" y="321.112631117"/>
    </g>
   </g>
   <g id="line2d_15">
    <path clip-path="url(#p9006a7549b)" d="M 230.79375 323.380149 
" style="fill:none;stroke:#000000;stroke-linecap:square;"/>
   </g>
   <g id="line2d_16">
    <g clip-path="url(#p9006a7549b)">
     <use style="stroke:#000000;stroke-width:0.5;" x="255.6" xlink:href="#mb25adc5879" y="274.627567014"/>
    </g>
   </g>
   <g id="line2d_17">
    <g clip-path="url(#p9006a7549b)">
     <use style="stroke:#000000;stroke-width:0.5;" x="255.6" xlink:href="#mb25adc5879" y="240.850758781"/>
    </g>
   </g>
   <g id="line2d_18">
    <path clip-path="url(#p9006a7549b)" d="M 255.6 257.739163 
" style="fill:none;stroke:#000000;stroke-linecap:square;"/>
   </g>
   <g id="line2d_19">
    <g clip-path="url(#p9006a7549b)">
     <use style="stroke:#000000;stroke-width:0.5;" x="265.5225" xlink:href="#mb25adc5879" y="243.69194134"/>
    </g>
   </g>
   <g id="line2d_20">
    <g clip-path="url(#p9006a7549b)">
     <use style="stroke:#000000;stroke-width:0.5;" x="265.5225" xlink:href="#mb25adc5879" y="219.409368637"/>
    </g>
   </g>
   <g id="line2d_21">
    <path clip-path="url(#p9006a7549b)" d="M 265.5225 231.550655 
" style="fill:none;stroke:#000000;stroke-linecap:square;"/>
   </g>
   <g id="line2d_22">
    <g clip-path="url(#p9006a7549b)">
     <use style="stroke:#000000;stroke-width:0.5;" x="275.445" xlink:href="#mb25adc5879" y="238.841430356"/>
    </g>
   </g>
   <g id="line2d_23">
    <g clip-path="url(#p9006a7549b)">
     <use style="stroke:#000000;stroke-width:0.5;" x="275.445" xlink:href="#mb25adc5879" y="228.983379979"/>
    </g>
   </g>
   <g id="line2d_24">
    <path clip-path="url(#p9006a7549b)" d="M 275.445 233.912405 
" style="fill:none;stroke:#000000;stroke-linecap:square;"/>
   </g>
   <g id="line2d_25">
    <g clip-path="url(#p9006a7549b)">
     <use style="stroke:#000000;stroke-width:0.5;" x="285.3675" xlink:href="#mb25adc5879" y="292.912957143"/>
    </g>
   </g>
   <g id="line2d_26">
    <g clip-path="url(#p9006a7549b)">
     <use style="stroke:#000000;stroke-width:0.5;" x="285.3675" xlink:href="#mb25adc5879" y="251.746443751"/>
    </g>
   </g>
   <g id="line2d_27">
    <path clip-path="url(#p9006a7549b)" d="M 285.3675 272.3297 
" style="fill:none;stroke:#000000;stroke-linecap:square;"/>
   </g>
   <g id="line2d_28">
    <g clip-path="url(#p9006a7549b)">
     <use style="stroke:#000000;stroke-width:0.5;" x="290.32875" xlink:href="#mb25adc5879" y="279.417777131"/>
    </g>
   </g>
   <g id="line2d_29">
    <g clip-path="url(#p9006a7549b)">
     <use style="stroke:#000000;stroke-width:0.5;" x="290.32875" xlink:href="#mb25adc5879" y="267.318961894"/>
    </g>
   </g>
   <g id="line2d_30">
    <path clip-path="url(#p9006a7549b)" d="M 290.32875 273.36837 
" style="fill:none;stroke:#000000;stroke-linecap:square;"/>
   </g>
   <g id="line2d_31">
    <g clip-path="url(#p9006a7549b)">
     <use style="stroke:#000000;stroke-width:0.5;" x="290.32875" xlink:href="#mb25adc5879" y="282.703720075"/>
    </g>
   </g>
   <g id="line2d_32">
    <g clip-path="url(#p9006a7549b)">
     <use style="stroke:#000000;stroke-width:0.5;" x="290.32875" xlink:href="#mb25adc5879" y="236.863678354"/>
    </g>
   </g>
   <g id="line2d_33">
    <path clip-path="url(#p9006a7549b)" d="M 290.32875 259.783699 
" style="fill:none;stroke:#000000;stroke-linecap:square;"/>
   </g>
   <g id="line2d_34">
    <g clip-path="url(#p9006a7549b)">
     <use style="stroke:#000000;stroke-width:0.5;" x="305.2125" xlink:href="#mb25adc5879" y="263.356307663"/>
    </g>
   </g>
   <g id="line2d_35">
    <g clip-path="url(#p9006a7549b)">
     <use style="stroke:#000000;stroke-width:0.5;" x="305.2125" xlink:href="#mb25adc5879" y="257.038094313"/>
    </g>
   </g>
   <g id="line2d_36">
    <path clip-path="url(#p9006a7549b)" d="M 305.2125 260.197201 
" style="fill:none;stroke:#000000;stroke-linecap:square;"/>
   </g>
   <g id="line2d_37">
    <g clip-path="url(#p9006a7549b)">
     <use style="stroke:#000000;stroke-width:0.5;" x="330.01875" xlink:href="#mb25adc5879" y="236.671017521"/>
    </g>
   </g>
   <g id="line2d_38">
    <g clip-path="url(#p9006a7549b)">
     <use style="stroke:#000000;stroke-width:0.5;" x="330.01875" xlink:href="#mb25adc5879" y="229.79674138"/>
    </g>
   </g>
   <g id="line2d_39">
    <path clip-path="url(#p9006a7549b)" d="M 330.01875 233.233879 
" style="fill:none;stroke:#000000;stroke-linecap:square;"/>
   </g>
   <g id="line2d_40">
    <g clip-path="url(#p9006a7549b)">
     <use style="stroke:#000000;stroke-width:0.5;" x="330.01875" xlink:href="#mb25adc5879" y="231.612271539"/>
    </g>
   </g>
   <g id="line2d_41">
    <g clip-path="url(#p9006a7549b)">
     <use style="stroke:#000000;stroke-width:0.5;" x="330.01875" xlink:href="#mb25adc5879" y="203.747732046"/>
    </g>
   </g>
   <g id="line2d_42">
    <path clip-path="url(#p9006a7549b)" d="M 330.01875 217.680002 
" style="fill:none;stroke:#000000;stroke-linecap:square;"/>
   </g>
   <g id="line2d_43">
    <g clip-path="url(#p9006a7549b)">
     <use style="stroke:#000000;stroke-width:0.5;" x="344.9025" xlink:href="#mb25adc5879" y="223.862487411"/>
    </g>
   </g>
   <g id="line2d_44">
    <g clip-path="url(#p9006a7549b)">
     <use style="stroke:#000000;stroke-width:0.5;" x="344.9025" xlink:href="#mb25adc5879" y="216.868311472"/>
    </g>
   </g>
   <g id="line2d_45">
    <path clip-path="url(#p9006a7549b)" d="M 344.9025 220.365399 
" style="fill:none;stroke:#000000;stroke-linecap:square;"/>
   </g>
   <g id="line2d_46">
    <g clip-path="url(#p9006a7549b)">
     <use style="stroke:#000000;stroke-width:0.5;" x="369.70875" xlink:href="#mb25adc5879" y="194.479103543"/>
    </g>
   </g>
   <g id="line2d_47">
    <g clip-path="url(#p9006a7549b)">
     <use style="stroke:#000000;stroke-width:0.5;" x="369.70875" xlink:href="#mb25adc5879" y="186.02034502"/>
    </g>
   </g>
   <g id="line2d_48">
    <path clip-path="url(#p9006a7549b)" d="M 369.70875 190.249724 
" style="fill:none;stroke:#000000;stroke-linecap:square;"/>
   </g>
   <g id="line2d_49">
    <g clip-path="url(#p9006a7549b)">
     <use style="stroke:#000000;stroke-width:0.5;" x="379.63125" xlink:href="#mb25adc5879" y="202.689504627"/>
    </g>
   </g>
   <g id="line2d_50">
    <g clip-path="url(#p9006a7549b)">
     <use style="stroke:#000000;stroke-width:0.5;" x="379.63125" xlink:href="#mb25adc5879" y="153.896446896"/>
    </g>
   </g>
   <g id="line2d_51">
    <path clip-path="url(#p9006a7549b)" d="M 379.63125 178.292976 
" style="fill:none;stroke:#000000;stroke-linecap:square;"/>
   </g>
   <g id="line2d_52">
    <g clip-path="url(#p9006a7549b)">
     <use style="stroke:#000000;stroke-width:0.5;" x="384.5925" xlink:href="#mb25adc5879" y="155.519510044"/>
    </g>
   </g>
   <g id="line2d_53">
    <g clip-path="url(#p9006a7549b)">
     <use style="stroke:#000000;stroke-width:0.5;" x="384.5925" xlink:href="#mb25adc5879" y="146.450282662"/>
    </g>
   </g>
   <g id="line2d_54">
    <path clip-path="url(#p9006a7549b)" d="M 384.5925 150.984896 
" style="fill:none;stroke:#000000;stroke-linecap:square;"/>
   </g>
   <g id="patch_3">
    <path d="M 57.15 17.55 
L 553.275 17.55 
" style="fill:none;stroke:#000000;stroke-linecap:square;stroke-linejoin:miter;"/>
   </g>
   <g id="patch_4">
    <path d="M 553.275 523.100391 
L 553.275 17.55 
" style="fill:none;stroke:#000000;stroke-linecap:square;stroke-linejoin:miter;"/>
   </g>
   <g id="patch_5">
    <path d="M 57.15 523.100391 
L 553.275 523.100391 
" style="fill:none;stroke:#000000;stroke-linecap:square;stroke-linejoin:miter;"/>
   </g>
   <g id="patch_6">
    <path d="M 57.15 523.100391 
L 57.15 17.55 
" style="fill:none;stroke:#000000;stroke-linecap:square;stroke-linejoin:miter;"/>
   </g>
   <g id="matplotlib.axis_1">
    <g id="xtick_1">
     <g id="line2d_55">
      <defs>
       <path d="M 0 0 
L 0 -4 
" id="m3424ea25d2" style="stroke:#000000;stroke-width:0.5;"/>
      </defs>
      <g>
       <use style="stroke:#000000;stroke-width:0.5;" x="57.15" xlink:href="#m3424ea25d2" y="523.100390625"/>
      </g>
     </g>
     <g id="line2d_56">
      <defs>
       <path d="M 0 0 
L 0 4 
" id="m2a259d5c28" style="stroke:#000000;stroke-width:0.5;"/>
      </defs>
      <g>
       <use style="stroke:#000000;stroke-width:0.5;" x="57.15" xlink:href="#m2a259d5c28" y="17.55"/>
      </g>
     </g>
     <g id="text_1">
      <!-- 0.0 -->
      <defs>
       <path d="M 31.78125 66.40625 
Q 24.171875 66.40625 20.328125 58.90625 
Q 16.5 51.421875 16.5 36.375 
Q 16.5 21.390625 20.328125 13.890625 
Q 24.171875 6.390625 31.78125 6.390625 
Q 39.453125 6.390625 43.28125 13.890625 
Q 47.125 21.390625 47.125 36.375 
Q 47.125 51.421875 43.28125 58.90625 
Q 39.453125 66.40625 31.78125 66.40625 
M 31.78125 74.21875 
Q 44.046875 74.21875 50.515625 64.515625 
Q 56.984375 54.828125 56.984375 36.375 
Q 56.984375 17.96875 50.515625 8.265625 
Q 44.046875 -1.421875 31.78125 -1.421875 
Q 19.53125 -1.421875 13.0625 8.265625 
Q 6.59375 17.96875 6.59375 36.375 
Q 6.59375 54.828125 13.0625 64.515625 
Q 19.53125 74.21875 31.78125 74.21875 
" id="BitstreamVeraSans-Roman-30"/>
       <path d="M 10.6875 12.40625 
L 21 12.40625 
L 21 0 
L 10.6875 0 
z
" id="BitstreamVeraSans-Roman-2e"/>
      </defs>
      <g transform="translate(45.22265625 538.498046875)scale(0.15 -0.15)">
       <use xlink:href="#BitstreamVeraSans-Roman-30"/>
       <use x="63.623046875" xlink:href="#BitstreamVeraSans-Roman-2e"/>
       <use x="95.41015625" xlink:href="#BitstreamVeraSans-Roman-30"/>
      </g>
     </g>
    </g>
    <g id="xtick_2">
     <g id="line2d_57">
      <g>
       <use style="stroke:#000000;stroke-width:0.5;" x="156.375" xlink:href="#m3424ea25d2" y="523.100390625"/>
      </g>
     </g>
     <g id="line2d_58">
      <g>
       <use style="stroke:#000000;stroke-width:0.5;" x="156.375" xlink:href="#m2a259d5c28" y="17.55"/>
      </g>
     </g>
     <g id="text_2">
      <!-- 0.2 -->
      <defs>
       <path d="M 19.1875 8.296875 
L 53.609375 8.296875 
L 53.609375 0 
L 7.328125 0 
L 7.328125 8.296875 
Q 12.9375 14.109375 22.625 23.890625 
Q 32.328125 33.6875 34.8125 36.53125 
Q 39.546875 41.84375 41.421875 45.53125 
Q 43.3125 49.21875 43.3125 52.78125 
Q 43.3125 58.59375 39.234375 62.25 
Q 35.15625 65.921875 28.609375 65.921875 
Q 23.96875 65.921875 18.8125 64.3125 
Q 13.671875 62.703125 7.8125 59.421875 
L 7.8125 69.390625 
Q 13.765625 71.78125 18.9375 73 
Q 24.125 74.21875 28.421875 74.21875 
Q 39.75 74.21875 46.484375 68.546875 
Q 53.21875 62.890625 53.21875 53.421875 
Q 53.21875 48.921875 51.53125 44.890625 
Q 49.859375 40.875 45.40625 35.40625 
Q 44.1875 33.984375 37.640625 27.21875 
Q 31.109375 20.453125 19.1875 8.296875 
" id="BitstreamVeraSans-Roman-32"/>
      </defs>
      <g transform="translate(144.44765625 538.498046875)scale(0.15 -0.15)">
       <use xlink:href="#BitstreamVeraSans-Roman-30"/>
       <use x="63.623046875" xlink:href="#BitstreamVeraSans-Roman-2e"/>
       <use x="95.41015625" xlink:href="#BitstreamVeraSans-Roman-32"/>
      </g>
     </g>
    </g>
    <g id="xtick_3">
     <g id="line2d_59">
      <g>
       <use style="stroke:#000000;stroke-width:0.5;" x="255.6" xlink:href="#m3424ea25d2" y="523.100390625"/>
      </g>
     </g>
     <g id="line2d_60">
      <g>
       <use style="stroke:#000000;stroke-width:0.5;" x="255.6" xlink:href="#m2a259d5c28" y="17.55"/>
      </g>
     </g>
     <g id="text_3">
      <!-- 0.4 -->
      <defs>
       <path d="M 37.796875 64.3125 
L 12.890625 25.390625 
L 37.796875 25.390625 
z
M 35.203125 72.90625 
L 47.609375 72.90625 
L 47.609375 25.390625 
L 58.015625 25.390625 
L 58.015625 17.1875 
L 47.609375 17.1875 
L 47.609375 0 
L 37.796875 0 
L 37.796875 17.1875 
L 4.890625 17.1875 
L 4.890625 26.703125 
z
" id="BitstreamVeraSans-Roman-34"/>
      </defs>
      <g transform="translate(243.67265625 538.498046875)scale(0.15 -0.15)">
       <use xlink:href="#BitstreamVeraSans-Roman-30"/>
       <use x="63.623046875" xlink:href="#BitstreamVeraSans-Roman-2e"/>
       <use x="95.41015625" xlink:href="#BitstreamVeraSans-Roman-34"/>
      </g>
     </g>
    </g>
    <g id="xtick_4">
     <g id="line2d_61">
      <g>
       <use style="stroke:#000000;stroke-width:0.5;" x="354.825" xlink:href="#m3424ea25d2" y="523.100390625"/>
      </g>
     </g>
     <g id="line2d_62">
      <g>
       <use style="stroke:#000000;stroke-width:0.5;" x="354.825" xlink:href="#m2a259d5c28" y="17.55"/>
      </g>
     </g>
     <g id="text_4">
      <!-- 0.6 -->
      <defs>
       <path d="M 33.015625 40.375 
Q 26.375 40.375 22.484375 35.828125 
Q 18.609375 31.296875 18.609375 23.390625 
Q 18.609375 15.53125 22.484375 10.953125 
Q 26.375 6.390625 33.015625 6.390625 
Q 39.65625 6.390625 43.53125 10.953125 
Q 47.40625 15.53125 47.40625 23.390625 
Q 47.40625 31.296875 43.53125 35.828125 
Q 39.65625 40.375 33.015625 40.375 
M 52.59375 71.296875 
L 52.59375 62.3125 
Q 48.875 64.0625 45.09375 64.984375 
Q 41.3125 65.921875 37.59375 65.921875 
Q 27.828125 65.921875 22.671875 59.328125 
Q 17.53125 52.734375 16.796875 39.40625 
Q 19.671875 43.65625 24.015625 45.921875 
Q 28.375 48.1875 33.59375 48.1875 
Q 44.578125 48.1875 50.953125 41.515625 
Q 57.328125 34.859375 57.328125 23.390625 
Q 57.328125 12.15625 50.6875 5.359375 
Q 44.046875 -1.421875 33.015625 -1.421875 
Q 20.359375 -1.421875 13.671875 8.265625 
Q 6.984375 17.96875 6.984375 36.375 
Q 6.984375 53.65625 15.1875 63.9375 
Q 23.390625 74.21875 37.203125 74.21875 
Q 40.921875 74.21875 44.703125 73.484375 
Q 48.484375 72.75 52.59375 71.296875 
" id="BitstreamVeraSans-Roman-36"/>
      </defs>
      <g transform="translate(342.89765625 538.498046875)scale(0.15 -0.15)">
       <use xlink:href="#BitstreamVeraSans-Roman-30"/>
       <use x="63.623046875" xlink:href="#BitstreamVeraSans-Roman-2e"/>
       <use x="95.41015625" xlink:href="#BitstreamVeraSans-Roman-36"/>
      </g>
     </g>
    </g>
    <g id="xtick_5">
     <g id="line2d_63">
      <g>
       <use style="stroke:#000000;stroke-width:0.5;" x="454.05" xlink:href="#m3424ea25d2" y="523.100390625"/>
      </g>
     </g>
     <g id="line2d_64">
      <g>
       <use style="stroke:#000000;stroke-width:0.5;" x="454.05" xlink:href="#m2a259d5c28" y="17.55"/>
      </g>
     </g>
     <g id="text_5">
      <!-- 0.8 -->
      <defs>
       <path d="M 31.78125 34.625 
Q 24.75 34.625 20.71875 30.859375 
Q 16.703125 27.09375 16.703125 20.515625 
Q 16.703125 13.921875 20.71875 10.15625 
Q 24.75 6.390625 31.78125 6.390625 
Q 38.8125 6.390625 42.859375 10.171875 
Q 46.921875 13.96875 46.921875 20.515625 
Q 46.921875 27.09375 42.890625 30.859375 
Q 38.875 34.625 31.78125 34.625 
M 21.921875 38.8125 
Q 15.578125 40.375 12.03125 44.71875 
Q 8.5 49.078125 8.5 55.328125 
Q 8.5 64.0625 14.71875 69.140625 
Q 20.953125 74.21875 31.78125 74.21875 
Q 42.671875 74.21875 48.875 69.140625 
Q 55.078125 64.0625 55.078125 55.328125 
Q 55.078125 49.078125 51.53125 44.71875 
Q 48 40.375 41.703125 38.8125 
Q 48.828125 37.15625 52.796875 32.3125 
Q 56.78125 27.484375 56.78125 20.515625 
Q 56.78125 9.90625 50.3125 4.234375 
Q 43.84375 -1.421875 31.78125 -1.421875 
Q 19.734375 -1.421875 13.25 4.234375 
Q 6.78125 9.90625 6.78125 20.515625 
Q 6.78125 27.484375 10.78125 32.3125 
Q 14.796875 37.15625 21.921875 38.8125 
M 18.3125 54.390625 
Q 18.3125 48.734375 21.84375 45.5625 
Q 25.390625 42.390625 31.78125 42.390625 
Q 38.140625 42.390625 41.71875 45.5625 
Q 45.3125 48.734375 45.3125 54.390625 
Q 45.3125 60.0625 41.71875 63.234375 
Q 38.140625 66.40625 31.78125 66.40625 
Q 25.390625 66.40625 21.84375 63.234375 
Q 18.3125 60.0625 18.3125 54.390625 
" id="BitstreamVeraSans-Roman-38"/>
      </defs>
      <g transform="translate(442.12265625 538.498046875)scale(0.15 -0.15)">
       <use xlink:href="#BitstreamVeraSans-Roman-30"/>
       <use x="63.623046875" xlink:href="#BitstreamVeraSans-Roman-2e"/>
       <use x="95.41015625" xlink:href="#BitstreamVeraSans-Roman-38"/>
      </g>
     </g>
    </g>
    <g id="xtick_6">
     <g id="line2d_65">
      <g>
       <use style="stroke:#000000;stroke-width:0.5;" x="553.275" xlink:href="#m3424ea25d2" y="523.100390625"/>
      </g>
     </g>
     <g id="line2d_66">
      <g>
       <use style="stroke:#000000;stroke-width:0.5;" x="553.275" xlink:href="#m2a259d5c28" y="17.55"/>
      </g>
     </g>
     <g id="text_6">
      <!-- 1.0 -->
      <defs>
       <path d="M 12.40625 8.296875 
L 28.515625 8.296875 
L 28.515625 63.921875 
L 10.984375 60.40625 
L 10.984375 69.390625 
L 28.421875 72.90625 
L 38.28125 72.90625 
L 38.28125 8.296875 
L 54.390625 8.296875 
L 54.390625 0 
L 12.40625 0 
z
" id="BitstreamVeraSans-Roman-31"/>
      </defs>
      <g transform="translate(541.34765625 538.498046875)scale(0.15 -0.15)">
       <use xlink:href="#BitstreamVeraSans-Roman-31"/>
       <use x="63.623046875" xlink:href="#BitstreamVeraSans-Roman-2e"/>
       <use x="95.41015625" xlink:href="#BitstreamVeraSans-Roman-30"/>
      </g>
     </g>
    </g>
    <g id="text_7">
     <!-- growth rate [h$^{-1}$] -->
     <defs>
      <path id="BitstreamVeraSans-Roman-20"/>
      <path d="M 8.59375 75.984375 
L 29.296875 75.984375 
L 29.296875 69 
L 17.578125 69 
L 17.578125 -6.203125 
L 29.296875 -6.203125 
L 29.296875 -13.1875 
L 8.59375 -13.1875 
z
" id="BitstreamVeraSans-Roman-5b"/>
      <path d="M 10.203125 23 
Q 9.375 23 8.828125 23.625 
Q 8.296875 24.265625 8.296875 25 
Q 8.296875 25.734375 8.828125 26.359375 
Q 9.375 27 10.203125 27 
L 67.578125 27 
Q 68.359375 27 68.875 26.359375 
Q 69.390625 25.734375 69.390625 25 
Q 69.390625 24.265625 68.875 23.625 
Q 68.359375 23 67.578125 23 
z
" id="Cmsy10-a1"/>
      <path d="M 30.421875 75.984375 
L 30.421875 -13.1875 
L 9.71875 -13.1875 
L 9.71875 -6.203125 
L 21.390625 -6.203125 
L 21.390625 69 
L 9.71875 69 
L 9.71875 75.984375 
z
" id="BitstreamVeraSans-Roman-5d"/>
      <path d="M 34.28125 27.484375 
Q 23.390625 27.484375 19.1875 25 
Q 14.984375 22.515625 14.984375 16.5 
Q 14.984375 11.71875 18.140625 8.90625 
Q 21.296875 6.109375 26.703125 6.109375 
Q 34.1875 6.109375 38.703125 11.40625 
Q 43.21875 16.703125 43.21875 25.484375 
L 43.21875 27.484375 
z
M 52.203125 31.203125 
L 52.203125 0 
L 43.21875 0 
L 43.21875 8.296875 
Q 40.140625 3.328125 35.546875 0.953125 
Q 30.953125 -1.421875 24.3125 -1.421875 
Q 15.921875 -1.421875 10.953125 3.296875 
Q 6 8.015625 6 15.921875 
Q 6 25.140625 12.171875 29.828125 
Q 18.359375 34.515625 30.609375 34.515625 
L 43.21875 34.515625 
L 43.21875 35.40625 
Q 43.21875 41.609375 39.140625 45 
Q 35.0625 48.390625 27.6875 48.390625 
Q 23 48.390625 18.546875 47.265625 
Q 14.109375 46.140625 10.015625 43.890625 
L 10.015625 52.203125 
Q 14.9375 54.109375 19.578125 55.046875 
Q 24.21875 56 28.609375 56 
Q 40.484375 56 46.34375 49.84375 
Q 52.203125 43.703125 52.203125 31.203125 
" id="BitstreamVeraSans-Roman-61"/>
      <path d="M 30.609375 48.390625 
Q 23.390625 48.390625 19.1875 42.75 
Q 14.984375 37.109375 14.984375 27.296875 
Q 14.984375 17.484375 19.15625 11.84375 
Q 23.34375 6.203125 30.609375 6.203125 
Q 37.796875 6.203125 41.984375 11.859375 
Q 46.1875 17.53125 46.1875 27.296875 
Q 46.1875 37.015625 41.984375 42.703125 
Q 37.796875 48.390625 30.609375 48.390625 
M 30.609375 56 
Q 42.328125 56 49.015625 48.375 
Q 55.71875 40.765625 55.71875 27.296875 
Q 55.71875 13.875 49.015625 6.21875 
Q 42.328125 -1.421875 30.609375 -1.421875 
Q 18.84375 -1.421875 12.171875 6.21875 
Q 5.515625 13.875 5.515625 27.296875 
Q 5.515625 40.765625 12.171875 48.375 
Q 18.84375 56 30.609375 56 
" id="BitstreamVeraSans-Roman-6f"/>
      <path d="M 9.28125 0 
L 9.28125 3.515625 
Q 21.78125 3.515625 21.78125 6.6875 
L 21.78125 59.1875 
Q 16.609375 56.6875 8.6875 56.6875 
L 8.6875 60.203125 
Q 20.953125 60.203125 27.203125 66.609375 
L 28.609375 66.609375 
Q 28.953125 66.609375 29.265625 66.328125 
Q 29.59375 66.0625 29.59375 65.71875 
L 29.59375 6.6875 
Q 29.59375 3.515625 42.09375 3.515625 
L 42.09375 0 
z
" id="Cmr10-31"/>
      <path d="M 54.890625 33.015625 
L 54.890625 0 
L 45.90625 0 
L 45.90625 32.71875 
Q 45.90625 40.484375 42.875 44.328125 
Q 39.84375 48.1875 33.796875 48.1875 
Q 26.515625 48.1875 22.3125 43.546875 
Q 18.109375 38.921875 18.109375 30.90625 
L 18.109375 0 
L 9.078125 0 
L 9.078125 75.984375 
L 18.109375 75.984375 
L 18.109375 46.1875 
Q 21.34375 51.125 25.703125 53.5625 
Q 30.078125 56 35.796875 56 
Q 45.21875 56 50.046875 50.171875 
Q 54.890625 44.34375 54.890625 33.015625 
" id="BitstreamVeraSans-Roman-68"/>
      <path d="M 56.203125 29.59375 
L 56.203125 25.203125 
L 14.890625 25.203125 
Q 15.484375 15.921875 20.484375 11.0625 
Q 25.484375 6.203125 34.421875 6.203125 
Q 39.59375 6.203125 44.453125 7.46875 
Q 49.3125 8.734375 54.109375 11.28125 
L 54.109375 2.78125 
Q 49.265625 0.734375 44.1875 -0.34375 
Q 39.109375 -1.421875 33.890625 -1.421875 
Q 20.796875 -1.421875 13.15625 6.1875 
Q 5.515625 13.8125 5.515625 26.8125 
Q 5.515625 40.234375 12.765625 48.109375 
Q 20.015625 56 32.328125 56 
Q 43.359375 56 49.78125 48.890625 
Q 56.203125 41.796875 56.203125 29.59375 
M 47.21875 32.234375 
Q 47.125 39.59375 43.09375 43.984375 
Q 39.0625 48.390625 32.421875 48.390625 
Q 24.90625 48.390625 20.390625 44.140625 
Q 15.875 39.890625 15.1875 32.171875 
z
" id="BitstreamVeraSans-Roman-65"/>
      <path d="M 4.203125 54.6875 
L 13.1875 54.6875 
L 24.421875 12.015625 
L 35.59375 54.6875 
L 46.1875 54.6875 
L 57.421875 12.015625 
L 68.609375 54.6875 
L 77.59375 54.6875 
L 63.28125 0 
L 52.6875 0 
L 40.921875 44.828125 
L 29.109375 0 
L 18.5 0 
z
" id="BitstreamVeraSans-Roman-77"/>
      <path d="M 45.40625 27.984375 
Q 45.40625 37.75 41.375 43.109375 
Q 37.359375 48.484375 30.078125 48.484375 
Q 22.859375 48.484375 18.828125 43.109375 
Q 14.796875 37.75 14.796875 27.984375 
Q 14.796875 18.265625 18.828125 12.890625 
Q 22.859375 7.515625 30.078125 7.515625 
Q 37.359375 7.515625 41.375 12.890625 
Q 45.40625 18.265625 45.40625 27.984375 
M 54.390625 6.78125 
Q 54.390625 -7.171875 48.1875 -13.984375 
Q 42 -20.796875 29.203125 -20.796875 
Q 24.46875 -20.796875 20.265625 -20.09375 
Q 16.0625 -19.390625 12.109375 -17.921875 
L 12.109375 -9.1875 
Q 16.0625 -11.328125 19.921875 -12.34375 
Q 23.78125 -13.375 27.78125 -13.375 
Q 36.625 -13.375 41.015625 -8.765625 
Q 45.40625 -4.15625 45.40625 5.171875 
L 45.40625 9.625 
Q 42.625 4.78125 38.28125 2.390625 
Q 33.9375 0 27.875 0 
Q 17.828125 0 11.671875 7.65625 
Q 5.515625 15.328125 5.515625 27.984375 
Q 5.515625 40.671875 11.671875 48.328125 
Q 17.828125 56 27.875 56 
Q 33.9375 56 38.28125 53.609375 
Q 42.625 51.21875 45.40625 46.390625 
L 45.40625 54.6875 
L 54.390625 54.6875 
z
" id="BitstreamVeraSans-Roman-67"/>
      <path d="M 41.109375 46.296875 
Q 39.59375 47.171875 37.8125 47.578125 
Q 36.03125 48 33.890625 48 
Q 26.265625 48 22.1875 43.046875 
Q 18.109375 38.09375 18.109375 28.8125 
L 18.109375 0 
L 9.078125 0 
L 9.078125 54.6875 
L 18.109375 54.6875 
L 18.109375 46.1875 
Q 20.953125 51.171875 25.484375 53.578125 
Q 30.03125 56 36.53125 56 
Q 37.453125 56 38.578125 55.875 
Q 39.703125 55.765625 41.0625 55.515625 
z
" id="BitstreamVeraSans-Roman-72"/>
      <path d="M 18.3125 70.21875 
L 18.3125 54.6875 
L 36.8125 54.6875 
L 36.8125 47.703125 
L 18.3125 47.703125 
L 18.3125 18.015625 
Q 18.3125 11.328125 20.140625 9.421875 
Q 21.96875 7.515625 27.59375 7.515625 
L 36.8125 7.515625 
L 36.8125 0 
L 27.59375 0 
Q 17.1875 0 13.234375 3.875 
Q 9.28125 7.765625 9.28125 18.015625 
L 9.28125 47.703125 
L 2.6875 47.703125 
L 2.6875 54.6875 
L 9.28125 54.6875 
L 9.28125 70.21875 
z
" id="BitstreamVeraSans-Roman-74"/>
     </defs>
     <g transform="translate(240.7875 559.367578125)scale(0.15 -0.15)">
      <use transform="translate(0.0 0.109375)" xlink:href="#BitstreamVeraSans-Roman-67"/>
      <use transform="translate(63.4765625 0.109375)" xlink:href="#BitstreamVeraSans-Roman-72"/>
      <use transform="translate(104.58984375 0.109375)" xlink:href="#BitstreamVeraSans-Roman-6f"/>
      <use transform="translate(165.771484375 0.109375)" xlink:href="#BitstreamVeraSans-Roman-77"/>
      <use transform="translate(247.55859375 0.109375)" xlink:href="#BitstreamVeraSans-Roman-74"/>
      <use transform="translate(286.767578125 0.109375)" xlink:href="#BitstreamVeraSans-Roman-68"/>
      <use transform="translate(350.146484375 0.109375)" xlink:href="#BitstreamVeraSans-Roman-20"/>
      <use transform="translate(381.93359375 0.109375)" xlink:href="#BitstreamVeraSans-Roman-72"/>
      <use transform="translate(423.046875 0.109375)" xlink:href="#BitstreamVeraSans-Roman-61"/>
      <use transform="translate(484.326171875 0.109375)" xlink:href="#BitstreamVeraSans-Roman-74"/>
      <use transform="translate(523.53515625 0.109375)" xlink:href="#BitstreamVeraSans-Roman-65"/>
      <use transform="translate(585.05859375 0.109375)" xlink:href="#BitstreamVeraSans-Roman-20"/>
      <use transform="translate(616.845703125 0.109375)" xlink:href="#BitstreamVeraSans-Roman-5b"/>
      <use transform="translate(655.859375 0.109375)" xlink:href="#BitstreamVeraSans-Roman-68"/>
      <use transform="translate(723.702421875 38.3734375)scale(0.7)" xlink:href="#Cmsy10-a1"/>
      <use transform="translate(778.082304688 38.3734375)scale(0.7)" xlink:href="#Cmr10-31"/>
      <use transform="translate(819.459648437 0.109375)" xlink:href="#BitstreamVeraSans-Roman-5d"/>
     </g>
    </g>
   </g>
   <g id="matplotlib.axis_2">
    <g id="ytick_1">
     <g id="line2d_67">
      <defs>
       <path d="M 0 0 
L 4 0 
" id="m8d7f4ce8aa" style="stroke:#000000;stroke-width:0.5;"/>
      </defs>
      <g>
       <use style="stroke:#000000;stroke-width:0.5;" x="57.15" xlink:href="#m8d7f4ce8aa" y="523.100390625"/>
      </g>
     </g>
     <g id="line2d_68">
      <defs>
       <path d="M 0 0 
L -4 0 
" id="m93996eed91" style="stroke:#000000;stroke-width:0.5;"/>
      </defs>
      <g>
       <use style="stroke:#000000;stroke-width:0.5;" x="553.275" xlink:href="#m93996eed91" y="523.100390625"/>
      </g>
     </g>
     <g id="text_8">
      <!-- 0.0 -->
      <g transform="translate(29.2953125 527.239453125)scale(0.15 -0.15)">
       <use xlink:href="#BitstreamVeraSans-Roman-30"/>
       <use x="63.623046875" xlink:href="#BitstreamVeraSans-Roman-2e"/>
       <use x="95.41015625" xlink:href="#BitstreamVeraSans-Roman-30"/>
      </g>
     </g>
    </g>
    <g id="ytick_2">
     <g id="line2d_69">
      <g>
       <use style="stroke:#000000;stroke-width:0.5;" x="57.15" xlink:href="#m8d7f4ce8aa" y="421.9903125"/>
      </g>
     </g>
     <g id="line2d_70">
      <g>
       <use style="stroke:#000000;stroke-width:0.5;" x="553.275" xlink:href="#m93996eed91" y="421.9903125"/>
      </g>
     </g>
     <g id="text_9">
      <!-- 0.2 -->
      <g transform="translate(29.2953125 426.129375)scale(0.15 -0.15)">
       <use xlink:href="#BitstreamVeraSans-Roman-30"/>
       <use x="63.623046875" xlink:href="#BitstreamVeraSans-Roman-2e"/>
       <use x="95.41015625" xlink:href="#BitstreamVeraSans-Roman-32"/>
      </g>
     </g>
    </g>
    <g id="ytick_3">
     <g id="line2d_71">
      <g>
       <use style="stroke:#000000;stroke-width:0.5;" x="57.15" xlink:href="#m8d7f4ce8aa" y="320.880234375"/>
      </g>
     </g>
     <g id="line2d_72">
      <g>
       <use style="stroke:#000000;stroke-width:0.5;" x="553.275" xlink:href="#m93996eed91" y="320.880234375"/>
      </g>
     </g>
     <g id="text_10">
      <!-- 0.4 -->
      <g transform="translate(29.2953125 325.019296875)scale(0.15 -0.15)">
       <use xlink:href="#BitstreamVeraSans-Roman-30"/>
       <use x="63.623046875" xlink:href="#BitstreamVeraSans-Roman-2e"/>
       <use x="95.41015625" xlink:href="#BitstreamVeraSans-Roman-34"/>
      </g>
     </g>
    </g>
    <g id="ytick_4">
     <g id="line2d_73">
      <g>
       <use style="stroke:#000000;stroke-width:0.5;" x="57.15" xlink:href="#m8d7f4ce8aa" y="219.77015625"/>
      </g>
     </g>
     <g id="line2d_74">
      <g>
       <use style="stroke:#000000;stroke-width:0.5;" x="553.275" xlink:href="#m93996eed91" y="219.77015625"/>
      </g>
     </g>
     <g id="text_11">
      <!-- 0.6 -->
      <g transform="translate(29.2953125 223.90921875)scale(0.15 -0.15)">
       <use xlink:href="#BitstreamVeraSans-Roman-30"/>
       <use x="63.623046875" xlink:href="#BitstreamVeraSans-Roman-2e"/>
       <use x="95.41015625" xlink:href="#BitstreamVeraSans-Roman-36"/>
      </g>
     </g>
    </g>
    <g id="ytick_5">
     <g id="line2d_75">
      <g>
       <use style="stroke:#000000;stroke-width:0.5;" x="57.15" xlink:href="#m8d7f4ce8aa" y="118.660078125"/>
      </g>
     </g>
     <g id="line2d_76">
      <g>
       <use style="stroke:#000000;stroke-width:0.5;" x="553.275" xlink:href="#m93996eed91" y="118.660078125"/>
      </g>
     </g>
     <g id="text_12">
      <!-- 0.8 -->
      <g transform="translate(29.2953125 122.799140625)scale(0.15 -0.15)">
       <use xlink:href="#BitstreamVeraSans-Roman-30"/>
       <use x="63.623046875" xlink:href="#BitstreamVeraSans-Roman-2e"/>
       <use x="95.41015625" xlink:href="#BitstreamVeraSans-Roman-38"/>
      </g>
     </g>
    </g>
    <g id="ytick_6">
     <g id="line2d_77">
      <g>
       <use style="stroke:#000000;stroke-width:0.5;" x="57.15" xlink:href="#m8d7f4ce8aa" y="17.55"/>
      </g>
     </g>
     <g id="line2d_78">
      <g>
       <use style="stroke:#000000;stroke-width:0.5;" x="553.275" xlink:href="#m93996eed91" y="17.55"/>
      </g>
     </g>
     <g id="text_13">
      <!-- 1.0 -->
      <g transform="translate(29.2953125 21.6890625)scale(0.15 -0.15)">
       <use xlink:href="#BitstreamVeraSans-Roman-31"/>
       <use x="63.623046875" xlink:href="#BitstreamVeraSans-Roman-2e"/>
       <use x="95.41015625" xlink:href="#BitstreamVeraSans-Roman-30"/>
      </g>
     </g>
    </g>
    <g id="text_14">
     <!-- capacity usage -->
     <defs>
      <path d="M 9.421875 54.6875 
L 18.40625 54.6875 
L 18.40625 0 
L 9.421875 0 
z
M 9.421875 75.984375 
L 18.40625 75.984375 
L 18.40625 64.59375 
L 9.421875 64.59375 
z
" id="BitstreamVeraSans-Roman-69"/>
      <path d="M 48.78125 52.59375 
L 48.78125 44.1875 
Q 44.96875 46.296875 41.140625 47.34375 
Q 37.3125 48.390625 33.40625 48.390625 
Q 24.65625 48.390625 19.8125 42.84375 
Q 14.984375 37.3125 14.984375 27.296875 
Q 14.984375 17.28125 19.8125 11.734375 
Q 24.65625 6.203125 33.40625 6.203125 
Q 37.3125 6.203125 41.140625 7.25 
Q 44.96875 8.296875 48.78125 10.40625 
L 48.78125 2.09375 
Q 45.015625 0.34375 40.984375 -0.53125 
Q 36.96875 -1.421875 32.421875 -1.421875 
Q 20.0625 -1.421875 12.78125 6.34375 
Q 5.515625 14.109375 5.515625 27.296875 
Q 5.515625 40.671875 12.859375 48.328125 
Q 20.21875 56 33.015625 56 
Q 37.15625 56 41.109375 55.140625 
Q 45.0625 54.296875 48.78125 52.59375 
" id="BitstreamVeraSans-Roman-63"/>
      <path d="M 32.171875 -5.078125 
Q 28.375 -14.84375 24.75 -17.8125 
Q 21.140625 -20.796875 15.09375 -20.796875 
L 7.90625 -20.796875 
L 7.90625 -13.28125 
L 13.1875 -13.28125 
Q 16.890625 -13.28125 18.9375 -11.515625 
Q 21 -9.765625 23.484375 -3.21875 
L 25.09375 0.875 
L 2.984375 54.6875 
L 12.5 54.6875 
L 29.59375 11.921875 
L 46.6875 54.6875 
L 56.203125 54.6875 
z
" id="BitstreamVeraSans-Roman-79"/>
      <path d="M 8.5 21.578125 
L 8.5 54.6875 
L 17.484375 54.6875 
L 17.484375 21.921875 
Q 17.484375 14.15625 20.5 10.265625 
Q 23.53125 6.390625 29.59375 6.390625 
Q 36.859375 6.390625 41.078125 11.03125 
Q 45.3125 15.671875 45.3125 23.6875 
L 45.3125 54.6875 
L 54.296875 54.6875 
L 54.296875 0 
L 45.3125 0 
L 45.3125 8.40625 
Q 42.046875 3.421875 37.71875 1 
Q 33.40625 -1.421875 27.6875 -1.421875 
Q 18.265625 -1.421875 13.375 4.4375 
Q 8.5 10.296875 8.5 21.578125 
" id="BitstreamVeraSans-Roman-75"/>
      <path d="M 44.28125 53.078125 
L 44.28125 44.578125 
Q 40.484375 46.53125 36.375 47.5 
Q 32.28125 48.484375 27.875 48.484375 
Q 21.1875 48.484375 17.84375 46.4375 
Q 14.5 44.390625 14.5 40.28125 
Q 14.5 37.15625 16.890625 35.375 
Q 19.28125 33.59375 26.515625 31.984375 
L 29.59375 31.296875 
Q 39.15625 29.25 43.1875 25.515625 
Q 47.21875 21.78125 47.21875 15.09375 
Q 47.21875 7.46875 41.1875 3.015625 
Q 35.15625 -1.421875 24.609375 -1.421875 
Q 20.21875 -1.421875 15.453125 -0.5625 
Q 10.6875 0.296875 5.421875 2 
L 5.421875 11.28125 
Q 10.40625 8.6875 15.234375 7.390625 
Q 20.0625 6.109375 24.8125 6.109375 
Q 31.15625 6.109375 34.5625 8.28125 
Q 37.984375 10.453125 37.984375 14.40625 
Q 37.984375 18.0625 35.515625 20.015625 
Q 33.0625 21.96875 24.703125 23.78125 
L 21.578125 24.515625 
Q 13.234375 26.265625 9.515625 29.90625 
Q 5.8125 33.546875 5.8125 39.890625 
Q 5.8125 47.609375 11.28125 51.796875 
Q 16.75 56 26.8125 56 
Q 31.78125 56 36.171875 55.265625 
Q 40.578125 54.546875 44.28125 53.078125 
" id="BitstreamVeraSans-Roman-73"/>
      <path d="M 18.109375 8.203125 
L 18.109375 -20.796875 
L 9.078125 -20.796875 
L 9.078125 54.6875 
L 18.109375 54.6875 
L 18.109375 46.390625 
Q 20.953125 51.265625 25.265625 53.625 
Q 29.59375 56 35.59375 56 
Q 45.5625 56 51.78125 48.09375 
Q 58.015625 40.1875 58.015625 27.296875 
Q 58.015625 14.40625 51.78125 6.484375 
Q 45.5625 -1.421875 35.59375 -1.421875 
Q 29.59375 -1.421875 25.265625 0.953125 
Q 20.953125 3.328125 18.109375 8.203125 
M 48.6875 27.296875 
Q 48.6875 37.203125 44.609375 42.84375 
Q 40.53125 48.484375 33.40625 48.484375 
Q 26.265625 48.484375 22.1875 42.84375 
Q 18.109375 37.203125 18.109375 27.296875 
Q 18.109375 17.390625 22.1875 11.75 
Q 26.265625 6.109375 33.40625 6.109375 
Q 40.53125 6.109375 44.609375 11.75 
Q 48.6875 17.390625 48.6875 27.296875 
" id="BitstreamVeraSans-Roman-70"/>
     </defs>
     <g transform="translate(21.17578125 327.005273438)rotate(-90.0)scale(0.15 -0.15)">
      <use xlink:href="#BitstreamVeraSans-Roman-63"/>
      <use x="54.98046875" xlink:href="#BitstreamVeraSans-Roman-61"/>
      <use x="116.259765625" xlink:href="#BitstreamVeraSans-Roman-70"/>
      <use x="179.736328125" xlink:href="#BitstreamVeraSans-Roman-61"/>
      <use x="241.015625" xlink:href="#BitstreamVeraSans-Roman-63"/>
      <use x="295.99609375" xlink:href="#BitstreamVeraSans-Roman-69"/>
      <use x="323.779296875" xlink:href="#BitstreamVeraSans-Roman-74"/>
      <use x="362.98828125" xlink:href="#BitstreamVeraSans-Roman-79"/>
      <use x="422.16796875" xlink:href="#BitstreamVeraSans-Roman-20"/>
      <use x="453.955078125" xlink:href="#BitstreamVeraSans-Roman-75"/>
      <use x="517.333984375" xlink:href="#BitstreamVeraSans-Roman-73"/>
      <use x="569.43359375" xlink:href="#BitstreamVeraSans-Roman-61"/>
      <use x="630.712890625" xlink:href="#BitstreamVeraSans-Roman-67"/>
      <use x="694.189453125" xlink:href="#BitstreamVeraSans-Roman-65"/>
     </g>
    </g>
   </g>
   <g id="text_15">
    <!-- gal -->
    <defs>
     <path d="M 9.421875 75.984375 
L 18.40625 75.984375 
L 18.40625 0 
L 9.421875 0 
z
" id="BitstreamVeraSans-Roman-6c"/>
    </defs>
    <g transform="translate(174.701484375 353.044873405)scale(0.15 -0.15)">
     <use xlink:href="#BitstreamVeraSans-Roman-67"/>
     <use x="63.4765625" xlink:href="#BitstreamVeraSans-Roman-61"/>
     <use x="124.755859375" xlink:href="#BitstreamVeraSans-Roman-6c"/>
    </g>
   </g>
   <g id="text_16">
    <!-- ac -->
    <g transform="translate(197.267578125 274.154850894)scale(0.15 -0.15)">
     <use xlink:href="#BitstreamVeraSans-Roman-61"/>
     <use x="61.279296875" xlink:href="#BitstreamVeraSans-Roman-63"/>
    </g>
   </g>
   <g id="text_17">
    <!-- pyr -->
    <g transform="translate(243.31640625 252.683658991)scale(0.15 -0.15)">
     <use xlink:href="#BitstreamVeraSans-Roman-70"/>
     <use x="63.4765625" xlink:href="#BitstreamVeraSans-Roman-79"/>
     <use x="122.65625" xlink:href="#BitstreamVeraSans-Roman-72"/>
    </g>
   </g>
   <g id="text_18">
    <!-- fum -->
    <defs>
     <path d="M 52 44.1875 
Q 55.375 50.25 60.0625 53.125 
Q 64.75 56 71.09375 56 
Q 79.640625 56 84.28125 50.015625 
Q 88.921875 44.046875 88.921875 33.015625 
L 88.921875 0 
L 79.890625 0 
L 79.890625 32.71875 
Q 79.890625 40.578125 77.09375 44.375 
Q 74.3125 48.1875 68.609375 48.1875 
Q 61.625 48.1875 57.5625 43.546875 
Q 53.515625 38.921875 53.515625 30.90625 
L 53.515625 0 
L 44.484375 0 
L 44.484375 32.71875 
Q 44.484375 40.625 41.703125 44.40625 
Q 38.921875 48.1875 33.109375 48.1875 
Q 26.21875 48.1875 22.15625 43.53125 
Q 18.109375 38.875 18.109375 30.90625 
L 18.109375 0 
L 9.078125 0 
L 9.078125 54.6875 
L 18.109375 54.6875 
L 18.109375 46.1875 
Q 21.1875 51.21875 25.484375 53.609375 
Q 29.78125 56 35.6875 56 
Q 41.65625 56 45.828125 52.96875 
Q 50 49.953125 52 44.1875 
" id="BitstreamVeraSans-Roman-6d"/>
     <path d="M 37.109375 75.984375 
L 37.109375 68.5 
L 28.515625 68.5 
Q 23.6875 68.5 21.796875 66.546875 
Q 19.921875 64.59375 19.921875 59.515625 
L 19.921875 54.6875 
L 34.71875 54.6875 
L 34.71875 47.703125 
L 19.921875 47.703125 
L 19.921875 0 
L 10.890625 0 
L 10.890625 47.703125 
L 2.296875 47.703125 
L 2.296875 54.6875 
L 10.890625 54.6875 
L 10.890625 58.5 
Q 10.890625 67.625 15.140625 71.796875 
Q 19.390625 75.984375 28.609375 75.984375 
z
" id="BitstreamVeraSans-Roman-66"/>
    </defs>
    <g transform="translate(250.823671875 226.495151082)scale(0.15 -0.15)">
     <use xlink:href="#BitstreamVeraSans-Roman-66"/>
     <use x="35.205078125" xlink:href="#BitstreamVeraSans-Roman-75"/>
     <use x="98.583984375" xlink:href="#BitstreamVeraSans-Roman-6d"/>
    </g>
   </g>
   <g id="text_19">
    <!-- succ -->
    <g transform="translate(258.5371875 228.856901261)scale(0.15 -0.15)">
     <use xlink:href="#BitstreamVeraSans-Roman-73"/>
     <use x="52.099609375" xlink:href="#BitstreamVeraSans-Roman-75"/>
     <use x="115.478515625" xlink:href="#BitstreamVeraSans-Roman-63"/>
     <use x="170.458984375" xlink:href="#BitstreamVeraSans-Roman-63"/>
    </g>
   </g>
   <g id="text_20">
    <!-- gam -->
    <g transform="translate(268.704609375 267.274196541)scale(0.15 -0.15)">
     <use xlink:href="#BitstreamVeraSans-Roman-67"/>
     <use x="63.4765625" xlink:href="#BitstreamVeraSans-Roman-61"/>
     <use x="124.755859375" xlink:href="#BitstreamVeraSans-Roman-6d"/>
    </g>
   </g>
   <g id="text_21">
    <!-- glyc -->
    <g transform="translate(274.9209375 268.312865606)scale(0.15 -0.15)">
     <use xlink:href="#BitstreamVeraSans-Roman-67"/>
     <use x="63.4765625" xlink:href="#BitstreamVeraSans-Roman-6c"/>
     <use x="91.259765625" xlink:href="#BitstreamVeraSans-Roman-79"/>
     <use x="150.439453125" xlink:href="#BitstreamVeraSans-Roman-63"/>
    </g>
   </g>
   <g id="text_22">
    <!-- man -->
    <defs>
     <path d="M 54.890625 33.015625 
L 54.890625 0 
L 45.90625 0 
L 45.90625 32.71875 
Q 45.90625 40.484375 42.875 44.328125 
Q 39.84375 48.1875 33.796875 48.1875 
Q 26.515625 48.1875 22.3125 43.546875 
Q 18.109375 38.921875 18.109375 30.90625 
L 18.109375 0 
L 9.078125 0 
L 9.078125 54.6875 
L 18.109375 54.6875 
L 18.109375 46.1875 
Q 21.34375 51.125 25.703125 53.5625 
Q 30.078125 56 35.796875 56 
Q 45.21875 56 50.046875 50.171875 
Q 54.890625 44.34375 54.890625 33.015625 
" id="BitstreamVeraSans-Roman-6e"/>
    </defs>
    <g transform="translate(273.6740625 254.728195308)scale(0.15 -0.15)">
     <use xlink:href="#BitstreamVeraSans-Roman-6d"/>
     <use x="97.412109375" xlink:href="#BitstreamVeraSans-Roman-61"/>
     <use x="158.69140625" xlink:href="#BitstreamVeraSans-Roman-6e"/>
    </g>
   </g>
   <g id="text_23">
    <!-- glc -->
    <g transform="translate(319.05 228.178375544)scale(0.15 -0.15)">
     <use xlink:href="#BitstreamVeraSans-Roman-67"/>
     <use x="63.4765625" xlink:href="#BitstreamVeraSans-Roman-6c"/>
     <use x="91.259765625" xlink:href="#BitstreamVeraSans-Roman-63"/>
    </g>
   </g>
   <g id="text_24">
    <!-- xyl_D -->
    <defs>
     <path d="M 19.671875 64.796875 
L 19.671875 8.109375 
L 31.59375 8.109375 
Q 46.6875 8.109375 53.6875 14.9375 
Q 60.6875 21.78125 60.6875 36.53125 
Q 60.6875 51.171875 53.6875 57.984375 
Q 46.6875 64.796875 31.59375 64.796875 
z
M 9.8125 72.90625 
L 30.078125 72.90625 
Q 51.265625 72.90625 61.171875 64.09375 
Q 71.09375 55.28125 71.09375 36.53125 
Q 71.09375 17.671875 61.125 8.828125 
Q 51.171875 0 30.078125 0 
L 9.8125 0 
z
" id="BitstreamVeraSans-Roman-44"/>
     <path d="M 50.984375 -16.609375 
L 50.984375 -23.578125 
L -0.984375 -23.578125 
L -0.984375 -16.609375 
z
" id="BitstreamVeraSans-Roman-5f"/>
     <path d="M 54.890625 54.6875 
L 35.109375 28.078125 
L 55.90625 0 
L 45.3125 0 
L 29.390625 21.484375 
L 13.484375 0 
L 2.875 0 
L 24.125 28.609375 
L 4.6875 54.6875 
L 15.28125 54.6875 
L 29.78125 35.203125 
L 44.28125 54.6875 
z
" id="BitstreamVeraSans-Roman-78"/>
    </defs>
    <g transform="translate(309.53203125 212.624497886)scale(0.15 -0.15)">
     <use xlink:href="#BitstreamVeraSans-Roman-78"/>
     <use x="59.1796875" xlink:href="#BitstreamVeraSans-Roman-79"/>
     <use x="118.359375" xlink:href="#BitstreamVeraSans-Roman-6c"/>
     <use x="146.142578125" xlink:href="#BitstreamVeraSans-Roman-5f"/>
     <use x="196.142578125" xlink:href="#BitstreamVeraSans-Roman-44"/>
    </g>
   </g>
   <g id="text_25">
    <!-- glc -->
    <g transform="translate(333.93375 215.309895535)scale(0.15 -0.15)">
     <use xlink:href="#BitstreamVeraSans-Roman-67"/>
     <use x="63.4765625" xlink:href="#BitstreamVeraSans-Roman-6c"/>
     <use x="91.259765625" xlink:href="#BitstreamVeraSans-Roman-63"/>
    </g>
   </g>
   <g id="text_26">
    <!-- glc -->
    <g transform="translate(358.74 185.194220375)scale(0.15 -0.15)">
     <use xlink:href="#BitstreamVeraSans-Roman-67"/>
     <use x="63.4765625" xlink:href="#BitstreamVeraSans-Roman-6c"/>
     <use x="91.259765625" xlink:href="#BitstreamVeraSans-Roman-63"/>
    </g>
   </g>
   <g id="text_27">
    <!-- fru -->
    <g transform="translate(369.1546875 173.237471855)scale(0.15 -0.15)">
     <use xlink:href="#BitstreamVeraSans-Roman-66"/>
     <use x="35.205078125" xlink:href="#BitstreamVeraSans-Roman-72"/>
     <use x="76.318359375" xlink:href="#BitstreamVeraSans-Roman-75"/>
    </g>
   </g>
   <g id="text_28">
    <!-- glc -->
    <g transform="translate(373.62375 145.929392447)scale(0.15 -0.15)">
     <use xlink:href="#BitstreamVeraSans-Roman-67"/>
     <use x="63.4765625" xlink:href="#BitstreamVeraSans-Roman-6c"/>
     <use x="91.259765625" xlink:href="#BitstreamVeraSans-Roman-63"/>
    </g>
   </g>
  </g>
 </g>
 <defs>
  <clipPath id="p9006a7549b">
   <rect height="505.550390625" width="496.125" x="57.15" y="17.55"/>
  </clipPath>
 </defs>
</svg>
